<svg xmlns="http://www.w3.org/2000/svg" viewBox="0 0 16 16">
  <title>trophy</title>
  <g>
    <path d="M4.09,8.62a.493.493,0,0,1-.16-.026L3.661,8.5A5.494,5.494,0,0,1,0,3.32V2.5A.5.5,0,0,1,.5,2h3a.5.5,0,0,1,0,1H1v.32A4.49,4.49,0,0,0,3.986,7.558l.264.088a.5.5,0,0,1-.16.974Z" fill="#ffc107"/>
    <path d="M11.91,8.62a.5.5,0,0,1-.159-.974l.27-.09A4.489,4.489,0,0,0,15,3.32V3H12.5a.5.5,0,0,1,0-1h3a.5.5,0,0,1,.5.5v.82A5.492,5.492,0,0,1,12.346,8.5l-.276.092A.49.49,0,0,1,11.91,8.62Z" fill="#ffc107"/>
    <path d="M9,11.05a.5.5,0,0,0-.5.5h-1a.5.5,0,0,0-1,0V14a.5.5,0,0,0,.5.5H9a.5.5,0,0,0,.5-.5V11.55A.5.5,0,0,0,9,11.05Z" fill="#607d8b"/>
    <path d="M12.5,1h-9a.5.5,0,0,0-.5.5V5.464A6.715,6.715,0,0,0,6.984,11.6a2.5,2.5,0,0,0,2.032,0A6.714,6.714,0,0,0,13,5.464V1.5A.5.5,0,0,0,12.5,1Z" fill="#ffd54f"/>
    <rect x="5" y="14" width="6" height="1.999" rx="0.5" ry="0.5" fill="#455a64"/>
  </g>
</svg>
