<?xml version="1.0" encoding="utf-8"?>
<!-- Generator: Adobe Illustrator 27.3.1, SVG Export Plug-In . SVG Version: 6.00 Build 0)  -->
<svg version="1.1" id="Layer_1" xmlns="http://www.w3.org/2000/svg" xmlns:xlink="http://www.w3.org/1999/xlink" x="0px" y="0px"
	 viewBox="0 0 728 196" style="enable-background:new 0 0 728 196;" xml:space="preserve">
<style type="text/css">
	.st0{fill:#B1B5C3;}
</style>
<path class="st0" d="M56.3,1C49,1,41.8,2.5,35.1,5.4c-6.7,2.8-12.8,7-18,12.2C12,22.8,7.9,29,5.1,35.8C2.4,42.6,1,49.9,1,57.2v18.6
	h45V48.9c0-1.3,0.2-2.5,0.7-3.7c0.5-1.2,1.2-2.2,2.1-3.1c0.9-0.9,1.9-1.6,3.1-2.1c1.2-0.5,2.4-0.7,3.7-0.7h1.6
	c1.3,0,2.5,0.2,3.7,0.7c1.2,0.5,2.2,1.2,3.1,2.1c0.9,0.9,1.6,2,2.1,3.1c0.5,1.2,0.7,2.4,0.7,3.7V121c5.9,0,11.8-1.2,17.2-3.4
	c5.5-2.3,10.4-5.6,14.6-9.8c4.2-4.2,7.5-9.2,9.7-14.7c2.3-5.5,3.4-11.4,3.4-17.3V57.2c0-14.9-5.8-29.2-16.2-39.7
	c-5.1-5.2-11.2-9.4-17.9-12.2C70.8,2.5,63.6,1,56.3,1L56.3,1z"/>
<path class="st0" d="M57.2,157.5h-1.6c-1.3,0-2.5-0.2-3.7-0.7c-1.2-0.5-2.2-1.2-3.1-2.1c-0.9-0.9-1.6-2-2.1-3.1
	c-0.5-1.2-0.7-2.4-0.7-3.7V75.8c-5.9,0-11.8,1.2-17.2,3.4c-5.5,2.3-10.4,5.6-14.6,9.8c-4.2,4.2-7.5,9.2-9.7,14.7
	C2.2,109.2,1,115,1,121v18.3c-0.1,7.4,1.3,14.7,4,21.5s6.8,13,12,18.2c5.1,5.2,11.3,9.4,18,12.2c6.8,2.8,14,4.3,21.3,4.3
	c7.3,0,14.6-1.5,21.3-4.3c6.8-2.8,12.9-7,18-12.2c5.1-5.2,9.2-11.4,12-18.2c2.7-6.8,4.1-14.1,4-21.5V121h-45v26.9
	c0,1.3-0.2,2.5-0.7,3.7c-0.5,1.2-1.2,2.2-2.1,3.1c-0.9,0.9-1.9,1.6-3.1,2.1C59.7,157.2,58.4,157.5,57.2,157.5L57.2,157.5z"/>
<path class="st0" d="M188.5,58.1h-15.8v80.4H219v-15.2h-30.5L188.5,58.1z"/>
<path class="st0" d="M269.5,87.8c-2.2-2.8-5.1-5-8.3-6.4c-3.2-1.5-6.8-2.1-10.3-1.9c-3.7,0-7.4,0.7-10.7,2.3
	c-3.4,1.5-6.4,3.7-8.8,6.5c-5.3,5.9-8.2,13.6-8.2,21.5s2.9,15.6,8.2,21.5c2.5,2.8,5.5,5,8.8,6.5c3.4,1.5,7,2.3,10.7,2.3
	c8,0,14.2-2.8,18.6-8.4v6.8h14.7V81h-14.7V87.8z M265,121.4c-1.5,1.5-3.3,2.7-5.2,3.4s-4,1.1-6.1,1.1c-2.1,0.1-4.2-0.3-6.1-1.1
	c-1.9-0.8-3.7-2-5.2-3.5c-2.9-3.2-4.5-7.4-4.5-11.7s1.6-8.5,4.5-11.7c1.5-1.5,3.2-2.7,5.2-3.5c1.9-0.8,4-1.1,6.1-1.1
	c2.1-0.1,4.2,0.3,6.1,1.1c2,0.8,3.7,2,5.2,3.4c2.9,3.2,4.5,7.3,4.5,11.7S267.9,118.2,265,121.4L265,121.4z"/>
<path class="st0" d="M322.2,119.6L307.3,81h-16.1l23.4,55.6c-1,3.3-2.9,6.3-5.5,8.5c-2.8,1.9-6.1,2.8-9.4,2.5v13.8
	c6.5,0.6,13-1.2,18.3-5c4.9-3.7,8.8-9.7,11.8-17.9L350.6,81h-15.8L322.2,119.6z"/>
<path class="st0" d="M382.5,79.4c-4-0.1-8,0.6-11.8,2c-3.7,1.5-7.1,3.7-9.9,6.6c-5.5,5.9-8.5,13.6-8.5,21.7c0,8,3.1,15.8,8.6,21.7
	c5.7,5.7,13.3,8.6,22.7,8.6c11,0,19.3-4.1,24.9-12.3l-11.9-6.9c-1.5,1.9-3.5,3.5-5.7,4.5c-2.2,1-4.7,1.4-7.1,1.3
	c-8.8,0-14.1-3.6-16.1-10.8h43.1c0.4-2,0.6-4,0.6-6.1c0.2-8-2.7-15.8-8.2-21.6c-2.6-2.9-5.9-5.1-9.4-6.6
	C390.2,80,386.4,79.3,382.5,79.4z M367.5,104.3c0.7-3.4,2.5-6.4,5.1-8.6c2.8-2.1,6.3-3.2,9.8-3c3.2,0,6.4,1,9,2.9
	c2.8,2.1,4.6,5.3,5.2,8.7L367.5,104.3z"/>
<path class="st0" d="M436.4,90.9V81h-14.7v57.4h14.7V111c0-5.5,1.8-9.5,5.3-11.8c3.5-2.4,7.8-3.4,12.1-2.8V79.9
	c-3.7,0-7.4,0.9-10.6,2.8C440,84.5,437.6,87.4,436.4,90.9z"/>
<path class="st0" d="M525.6,70.5V58.1h-52.4v15.2h32.4l-33.3,52.6v12.7h53.9v-15.2h-33.9L525.6,70.5z"/>
<path class="st0" d="M561,79.4c-4-0.1-8,0.6-11.8,2c-3.7,1.5-7.1,3.7-9.9,6.6c-5.5,5.9-8.5,13.6-8.5,21.7c0,8,3.1,15.8,8.6,21.7
	c5.7,5.7,13.3,8.6,22.7,8.6c11,0,19.3-4.1,24.9-12.3l-11.9-6.9c-1.5,1.9-3.5,3.5-5.7,4.5c-2.2,1-4.7,1.4-7.1,1.3
	c-8.8,0-14.1-3.6-16.1-10.8h43.1c0.4-2,0.6-4,0.6-6.1c0.2-8-2.7-15.8-8.2-21.6c-2.6-2.9-5.9-5.1-9.4-6.6
	C568.7,80,564.9,79.3,561,79.4L561,79.4z M546,104.3c0.7-3.4,2.5-6.4,5.1-8.6c2.8-2.1,6.3-3.2,9.8-3c3.2,0,6.4,1,9,2.9
	c2.8,2.1,4.6,5.3,5.2,8.7L546,104.3z"/>
<path class="st0" d="M614.9,90.9V81h-14.7v57.4h14.7V111c0-5.5,1.8-9.5,5.3-11.8c3.5-2.4,7.8-3.4,12-2.8V79.9
	c-3.7,0-7.3,0.9-10.6,2.8C618.5,84.5,616.1,87.4,614.9,90.9L614.9,90.9z"/>
<path class="st0" d="M665.8,79.4c-6.9,0.1-13.6,2.6-18.9,7c-5.3,4.5-8.9,10.6-10.2,17.5c-1.3,6.8-0.2,13.9,3.1,20
	c3.3,6.1,8.6,10.9,15,13.5c6.4,2.6,13.5,2.9,20.1,0.9c6.6-2.1,12.3-6.3,16.1-12.1c3.8-5.8,5.5-12.7,4.8-19.7
	c-0.7-6.9-3.7-13.4-8.6-18.3c-2.8-2.9-6.1-5.1-9.8-6.6C673.8,80.1,669.8,79.3,665.8,79.4L665.8,79.4z M676.9,121.1
	c-1.4,1.5-3.2,2.6-5.1,3.4c-1.9,0.8-3.9,1.1-6,1.1c-2,0.1-4.1-0.3-6-1.1c-1.9-0.8-3.6-1.9-5-3.4c-2.8-3.1-4.4-7.2-4.4-11.4
	c0-4.2,1.6-8.3,4.4-11.4c1.4-1.5,3.2-2.6,5-3.4c1.9-0.8,3.9-1.1,6-1.1c2.1-0.1,4.1,0.3,6,1.1c1.9,0.8,3.6,1.9,5.1,3.4
	c2.9,3.1,4.5,7.1,4.5,11.4C681.4,113.9,679.8,118,676.9,121.1L676.9,121.1z"/>
<path class="st0" d="M727,120.8h-17.9v17.7H727V120.8z"/>
</svg>
