<?xml version="1.0" encoding="utf-8"?>
<!-- Generator: Adobe Illustrator 26.3.1, SVG Export Plug-In . SVG Version: 6.00 Build 0)  -->
<svg version="1.1" id="Layer_1" xmlns="http://www.w3.org/2000/svg" xmlns:xlink="http://www.w3.org/1999/xlink" x="0px" y="0px"
	 viewBox="0 0 74.5 74.4" style="enable-background:new 0 0 74.5 74.4;" xml:space="preserve">
<style type="text/css">
	.st0{fill:url(#SVGID_1_);}
	.st1{fill:#FFFFFF;}
</style>
<linearGradient id="SVGID_1_" gradientUnits="userSpaceOnUse" x1="3.2104" y1="-1419.1853" x2="65.2404" y2="-1357.3453" gradientTransform="matrix(1 0 0 -1 0 -1348)">
	<stop  offset="0.18" style="stop-color:#920BBC"/>
	<stop  offset="0.84" style="stop-color:#0049DD"/>
</linearGradient>
<path class="st0" d="M63.6,10.9C56.3,3.6,47.5,0,37.2,0s-19,3.6-26.3,10.9S0,27,0,37.2s3.6,19.1,10.9,26.4
	c7.3,7.2,16.1,10.9,26.4,10.9s19-3.6,26.3-10.9s10.9-16.1,10.9-26.3S70.8,18.2,63.6,10.9L63.6,10.9z"/>
<path class="st1" d="M43.3,18.5c0.6,0.1,1.2-0.1,1.6-0.8c-5.3-2.9-11.5-2.7-18.6,0.4C25,18.7,23.9,19,23.2,19
	c-0.5,0-0.9-0.1-1.1-0.3l0.1,0.2l7.7,13.3l-6.5-12.7c0.6,0,1.5-0.2,2.5-0.6C31.8,16.2,37.6,16.1,43.3,18.5L43.3,18.5z M49,21.8
	c0-0.3,0-0.4,0-0.4v-0.1h0.1c0,0,0.1,0.3,0.1,0.8c0.1,0.5,0.4,1,1,1.6c0.7,0.8,1.4,1.5,1.9,2.4c2.3,3.1,3.5,6.6,3.8,10.6
	c0,0.3,0,0.7,0,1.1c0,0.1,0,0.2,0,0.3s0,0.3,0,0.4c0,0.2,0,0.3,0,0.4c0,0.1,0,0.2,0,0.2c0.1,1.2,0.3,2,0.6,2.5l-14.4-1l15,1.4
	c0.2,0.1,0.4,0.1,0.7,0.1c-0.1,0-0.1-0.1-0.2-0.1c-0.6-0.4-1-1.8-1.1-4c0-0.4,0-0.8,0-1.2v-0.5c-0.2-4.3-1.2-8-3.2-11.1
	c-1.2-1.9-2.7-3.5-4.5-4.9c-0.2-0.2-0.5-0.4-0.8-0.6c-0.2-0.1-0.4,0-0.5,0c-0.2,0.1-0.4,0.4-0.6,0.9c-0.3,0.7-0.5,1.3-0.8,1.8
	c-0.1,0.2-0.3,0.5-0.6,0.9S45,24,44.9,24.2c-0.1,0.2-0.2,0.5-0.3,0.7s-0.2,0.5-0.2,0.7s-0.3,0.7-0.7,1.5c-0.4,0.9-0.9,1.7-1.4,2.6
	s-1,1.6-1.5,2.2s-1.2,1.5-2.2,2.9c-2.2,1.8-3.8,3.7-4.5,5.6l-1.4,3.7l0.6-3.2c-0.3-0.1-0.5-0.3-0.5-0.5c-0.1-0.2,0-0.4,0.2-0.7
	s0.3-0.5,0.3-0.6c0-0.2-0.1-0.5-0.3-0.9c-0.2-0.3-0.4-0.6-0.6-0.9C32.1,37.2,32,37,32,36.9s0-0.2,0.1-0.4c0-0.2,0-0.3-0.1-0.4
	c0-0.1-0.4-0.1-1-0.2c-0.1,0-0.2,0-0.3,0c-0.1-0.1-0.3-0.2-0.5-0.3l0,0l0,0c0,0-0.1,0-0.2-0.1s-0.3-0.2-0.5-0.4s-0.6-0.4-1-0.6
	c0,0,0,0-0.1,0s-0.1,0-0.1,0c-0.4-0.1-0.8-0.1-1.2,0c-0.1-0.1-0.2-0.1-0.3-0.1s-0.2,0-0.3,0c-0.2,0-0.4,0.1-0.5,0.3
	c-0.1,0.1-0.5,0.3-0.9,0.8c-0.5,0.4-0.7,1-0.8,1.7c0,0.5,0,0.9,0,1.2c-0.1,0.2-0.1,0.3-0.1,0.4c0,0.1,0,0.2,0.1,0.4
	c0,0.2,0.1,0.3,0.1,0.4c0.1,0.2,0.2,0.5,0.3,0.7c0.1,0.1,0.1,0.2,0.2,0.3c-0.1,0,0.1,0.2,0.5,0.7s1.1,0.7,2.1,0.8s1.8,0.3,2.4,0.8
	c0.4,0.3,0.4,0.7,0,1.2c-0.2,0.2-0.4,0.4-0.7,0.7c-0.2,0.1-0.5,0.3-0.9,0.5s-0.8,0.4-1.2,0.6c-0.4,0.3-0.9,0.7-1.5,1.2
	c-0.6,0.6-1.3,1.5-2.2,2.9L19,55.7l1.8-2.8c0.1-0.2,0.2-0.4,0.4-0.7c0.7-1,1-1.8,1-2.3c0-0.6,0.2-1.1,0.4-1.6c0.2-0.5,0.7-1,1.4-1.6
	c0.2-0.2,0.4-0.4,0.8-0.6c0.3-0.2,0.5-0.5,0.7-0.7s0.4-0.6,0.6-1l0,0c0.1-0.2,0.2-0.4,0.2-0.5c0.1-0.2,0.1-0.4,0-0.5
	c0-0.1-0.1-0.2-0.1-0.2l0,0c-0.2-0.2-0.6,0-1.1,0.5c-0.2,0.2-0.5,0.4-0.8,0.7c-0.5,0.4-0.8,0.7-1.1,1c-1,1-1.8,1.8-2.3,2.3
	s-1,1.3-1.5,2.3s-1.1,2-1.6,3s-0.9,2-1.1,3s-0.4,1.6-0.4,1.7c0,0.2,0,0.3,0,0.6c0,0.2,0.1,0.4,0.2,0.5c0.1,0.2,0.5,0.3,0.9,0.2
	c0.4,0,1.2-0.2,2.5-0.6s3.1-1.6,5.7-3.7c2.6-2.1,4.4-2.3,5.5-0.7c1.6,2.3,2.2,4.3,1.9,6.1c0,0.2-0.1,0.4-0.1,0.6
	c-0.2,1.1,0.5,1.7,2.3,1.8c1.7,0,3.8,0,6-0.3c2.3-0.2,4.3-0.9,6.1-1.9c-2.8-0.6-5-1.6-6.8-3.1c1,0.8,2.5,1.3,4.5,1.6
	c2.9,0.5,3.7,0.2,2.3-0.9c-4.3-2.6-6.6-6.5-7.1-11.8c-0.3-4,0.5-7.7,2.5-11c0.9-1.5,1.5-2.7,2-3.7c0.1-0.4,0.4-1,0.7-1.9
	s0.6-1.6,0.8-2.2c0.3-0.8,0.7-1.4,1.1-2c0.1-0.2,0.3-0.4,0.5-0.8c0.1-0.1,0.1-0.1,0.2-0.2c0.1-0.1,0.1-0.2,0.2-0.3
	c0.1-0.1,0.1-0.1,0.1-0.2c0.1-0.2,0.3-0.5,0.4-0.9C48.9,22.4,49,22,49,21.8L49,21.8z M42.7,25.2c0,0,1.5-2.4,4.6-7.1l1.4-2.2
	l0.3-0.5l0.7,0.9c0,0,0-0.1,0-0.3l0.2-3.8c0,0-3.5,2.5-3.5,2.5h1.1L34.9,35.8l7.6-10.3"/>
</svg>
