<svg width="16" height="16" viewBox="0 0 16 16" fill="none" xmlns="http://www.w3.org/2000/svg">
<path fill-rule="evenodd" clip-rule="evenodd" d="M7.66898 15.669C3.4693 15.669 0 12.1997 0 8.00004C0 3.80036 3.46341 0.331055 7.66309 0.331055C11.8628 0.331055 15.338 3.80036 15.338 8.00004C15.338 12.1997 11.8687 15.669 7.66898 15.669ZM6.72658 11.8522C6.94451 11.8522 7.133 11.7521 7.27436 11.5341L11.2325 5.3318C11.3209 5.20221 11.3975 5.04318 11.3975 4.90182C11.3975 4.58964 11.1206 4.39526 10.832 4.39526C10.6612 4.39526 10.4904 4.49539 10.3608 4.69566L6.69713 10.521L4.74748 8.07661C4.59434 7.88224 4.43531 7.81155 4.24682 7.81155C3.9582 7.81155 3.71671 8.04127 3.71671 8.35345C3.71671 8.5007 3.77561 8.65974 3.87574 8.78343L6.14934 11.54C6.33194 11.7638 6.50864 11.8522 6.72658 11.8522Z" fill="#219653"/>
</svg>
