<?xml version="1.0" encoding="UTF-8"?>
<svg id="Layer_1" data-name="Layer 1" xmlns="http://www.w3.org/2000/svg" xmlns:xlink="http://www.w3.org/1999/xlink" viewBox="0 0 74.5 74.5">
  <defs>
    <style>
      .cls-1 {
        fill: url(#linear-gradient);
      }

      .cls-2 {
        fill: #fff;
      }
    </style>
    <linearGradient id="linear-gradient" x1="3.2104" y1="2419.1853" x2="65.2404" y2="2357.3453" gradientTransform="translate(0 -2348)" gradientUnits="userSpaceOnUse">
      <stop offset="0" stop-color="#b900ff"/>
      <stop offset=".0246" stop-color="#b300f7"/>
      <stop offset=".3921" stop-color="#67008f"/>
      <stop offset=".6875" stop-color="#2f0042"/>
      <stop offset=".8964" stop-color="#0d0012"/>
      <stop offset="1" stop-color="#000"/>
    </linearGradient>
  </defs>
  <path class="cls-1" d="m63.6,10.9C56.3,3.6,47.5,0,37.2,0S18.2,3.6,10.9,10.9C3.6,18.2,0,27,0,37.2s3.6,19.1,10.9,26.4c7.3,7.2,16.1,10.9,26.4,10.9s19-3.6,26.3-10.9c7.3-7.3,10.9-16.1,10.9-26.3s-3.7-19.1-10.9-26.4h0Z"/>
  <path class="cls-2" d="m43.3,18.5c.6.1,1.2-.1,1.6-.8-5.3-2.9-11.5-2.7-18.6.4-1.3.6-2.4.9-3.1.9-.5,0-.9-.1-1.1-.3l.1.2,7.7,13.3-6.5-12.7c.6,0,1.5-.2,2.5-.6,5.9-2.7,11.7-2.8,17.4-.4h0Zm5.7,3.3v-.5h.1s.1.3.1.8c.1.5.4,1,1,1.6.7.8,1.4,1.5,1.9,2.4,2.3,3.1,3.5,6.6,3.8,10.6v2.4c.1,1.2.3,2,.6,2.5l-14.4-1,15,1.4c.2.1.4.1.7.1-.1,0-.1-.1-.2-.1-.6-.4-1-1.8-1.1-4v-1.7c-.2-4.3-1.2-8-3.2-11.1-1.2-1.9-2.7-3.5-4.5-4.9-.2-.2-.5-.4-.8-.6-.2-.1-.4,0-.5,0-.2.1-.4.4-.6.9-.3.7-.5,1.3-.8,1.8-.1.2-.3.5-.6.9s-.5.7-.6.9-.2.5-.3.7-.2.5-.2.7-.3.7-.7,1.5c-.4.9-.9,1.7-1.4,2.6s-1,1.6-1.5,2.2-1.2,1.5-2.2,2.9c-2.2,1.8-3.8,3.7-4.5,5.6l-1.4,3.7.6-3.2c-.3-.1-.5-.3-.5-.5-.1-.2,0-.4.2-.7s.3-.5.3-.6c0-.2-.1-.5-.3-.9-.2-.3-.4-.6-.6-.9-.3-.1-.4-.3-.4-.4s0-.2.1-.4c0-.2,0-.3-.1-.4,0-.1-.4-.1-1-.2h-.3c-.1-.1-.3-.2-.5-.3h0s-.1,0-.2-.1-.3-.2-.5-.4-.6-.4-1-.6h-.2c-.4-.1-.8-.1-1.2,0-.1-.1-.2-.1-.3-.1h-.3c-.2,0-.4.1-.5.3-.1.1-.5.3-.9.8-.5.4-.7,1-.8,1.7v1.2c-.1.2-.1.3-.1.4s0,.2.1.4c0,.2.1.3.1.4.1.2.2.5.3.7.1.1.1.2.2.3-.1,0,.1.2.5.7s1.1.7,2.1.8,1.8.3,2.4.8c.4.3.4.7,0,1.2-.2.2-.4.4-.7.7-.2.1-.5.3-.9.5s-.8.4-1.2.6c-.4.3-.9.7-1.5,1.2-.6.6-1.3,1.5-2.2,2.9l-4.4,5.7,1.8-2.8c.1-.2.2-.4.4-.7.7-1,1-1.8,1-2.3,0-.6.2-1.1.4-1.6.2-.5.7-1,1.4-1.6.2-.2.4-.4.8-.6.3-.2.5-.5.7-.7s.4-.6.6-1h0c.1-.2.2-.4.2-.5.1-.2.1-.4,0-.5,0-.1-.1-.2-.1-.2h0c-.2-.2-.6,0-1.1.5-.2.2-.5.4-.8.7-.5.4-.8.7-1.1,1l-2.3,2.3c-.5.5-1,1.3-1.5,2.3s-1.1,2-1.6,3-.9,2-1.1,3-.4,1.6-.4,1.7v.6c0,.2.1.4.2.5.1.2.5.3.9.2.4,0,1.2-.2,2.5-.6s3.1-1.6,5.7-3.7c2.6-2.1,4.4-2.3,5.5-.7,1.6,2.3,2.2,4.3,1.9,6.1,0,.2-.1.4-.1.6-.2,1.1.5,1.7,2.3,1.8,1.7,0,3.8,0,6-.3,2.3-.2,4.3-.9,6.1-1.9-2.8-.6-5-1.6-6.8-3.1,1,.8,2.5,1.3,4.5,1.6,2.9.5,3.7.2,2.3-.9-4.3-2.6-6.6-6.5-7.1-11.8-.3-4,.5-7.7,2.5-11,.9-1.5,1.5-2.7,2-3.7.1-.4.4-1,.7-1.9s.6-1.6.8-2.2c.3-.8.7-1.4,1.1-2,.1-.2.3-.4.5-.8q.1-.1.2-.2c.1-.1.1-.2.2-.3q.1-.1.1-.2c.1-.2.3-.5.4-.9.2-.5.3-.9.3-1.1h0Zm-6.3,3.4s1.5-2.4,4.6-7.1l1.4-2.2.3-.5.7.9v-.3l.2-3.8-3.5,2.5h1.1l-12.6,21.1,7.6-10.3"/>
</svg>