<svg width="16" height="16" viewBox="0 0 16 16" fill="none" xmlns="http://www.w3.org/2000/svg">
<path d="M7.91767 10.6525C7.87607 11.2161 7.63461 11.7464 7.23667 12.1478L6.63084 12.7537C6.18095 13.1972 5.57395 13.4448 4.94221 13.4425C4.31048 13.4403 3.70527 13.1883 3.25857 12.7416C2.81186 12.2949 2.5599 11.6897 2.55764 11.0579C2.55537 10.4261 2.80299 9.81914 3.24648 9.3692L3.85234 8.76334C4.25378 8.36554 4.78401 8.12401 5.34762 8.08234L6.44787 6.98207C5.84157 6.82127 5.20375 6.82207 4.59786 6.98441C3.99197 7.14667 3.43916 7.46487 2.99444 7.90721L2.38857 8.51314C1.71265 9.18914 1.33295 10.106 1.33301 11.0619C1.33307 12.0179 1.71287 12.9347 2.38887 13.6107C3.06488 14.2867 3.98171 14.6663 4.93766 14.6663C5.89362 14.6663 6.81041 14.2864 7.48634 13.6104L8.09221 13.0045C8.53434 12.5597 8.85234 12.0068 9.01467 11.4009C9.17694 10.7951 9.17787 10.1573 9.01734 9.55101L7.91767 10.6525Z" fill="#3772FF"/>
<path d="M10.6526 7.91787C11.2163 7.87627 11.7465 7.6348 12.1479 7.23687L12.7537 6.631C13.1973 6.18109 13.4449 5.57407 13.4426 4.94232C13.4403 4.31057 13.1884 3.70534 12.7417 3.25862C12.295 2.81191 11.6897 2.55994 11.058 2.55767C10.4263 2.55541 9.81927 2.80303 9.3694 3.24653L8.76353 3.85242C8.36573 4.25387 8.12427 4.78411 8.08253 5.34774L6.98227 6.44802C6.82153 5.84171 6.82233 5.20386 6.9846 4.59795C7.14693 3.99205 7.46507 3.43922 7.90747 2.99449L8.51333 2.38861C9.18933 1.71266 10.1061 1.33295 11.0621 1.33301C12.0181 1.33307 12.9349 1.71288 13.6107 2.38891C14.2867 3.06493 14.6664 3.98178 14.6663 4.93777C14.6663 5.89375 14.2865 6.81053 13.6105 7.48654L13.0046 8.0924C12.5597 8.53453 12.0069 8.8526 11.4011 9.01487C10.7952 9.1772 10.1575 9.17813 9.55113 9.0176L10.6526 7.91787Z" fill="#3772FF"/>
<path d="M5.57644 11.0294C5.45663 11.0294 5.33951 10.9938 5.23991 10.9273C5.14029 10.8607 5.06266 10.7661 5.01681 10.6554C4.97097 10.5447 4.95897 10.4229 4.98234 10.3054C5.00571 10.1878 5.06339 10.0799 5.14809 9.99515L9.99501 5.1481C10.1093 5.03774 10.2623 4.97667 10.4212 4.97805C10.58 4.97943 10.732 5.04315 10.8443 5.15548C10.9567 5.26782 11.0203 5.41978 11.0217 5.57864C11.0231 5.7375 10.9621 5.89055 10.8517 6.00482L6.00479 10.8519C5.89119 10.9656 5.73711 11.0294 5.57644 11.0294Z" fill="#3772FF"/>
</svg>
