<svg width="16" height="16" viewBox="0 0 16 16" fill="none" xmlns="http://www.w3.org/2000/svg">
<path fill-rule="evenodd" clip-rule="evenodd" d="M5.4999 3.60002L3.5999 3.60002L3.5999 12.4L12.3999 12.4V10.5V9.87502C12.3999 9.54365 12.6685 9.27502 12.9999 9.27502C13.3313 9.27502 13.5999 9.54365 13.5999 9.87502V10.5V12.5C13.5999 13.1075 13.1074 13.6 12.4999 13.6L3.4999 13.6C2.89239 13.6 2.3999 13.1075 2.3999 12.5L2.3999 3.50002C2.3999 2.89251 2.89239 2.40002 3.4999 2.40002L5.4999 2.40002H6.1249C6.45627 2.40002 6.7249 2.66865 6.7249 3.00002C6.7249 3.3314 6.45627 3.60002 6.1249 3.60002L5.4999 3.60002ZM13.0131 7.6574C12.6817 7.6574 12.4131 7.38877 12.4131 7.0574V5.70494V4.43312L6.19591 10.7013C5.96256 10.9365 5.58266 10.9381 5.34739 10.7047C5.11212 10.4714 5.11057 10.0915 5.34393 9.85619L11.5492 3.60002L10.3302 3.60002L8.9887 3.60002C8.65733 3.60002 8.3887 3.3314 8.3887 3.00002C8.3887 2.66865 8.65733 2.40002 8.9887 2.40002L10.3302 2.40002L12.5131 2.40002C13.1206 2.40002 13.6131 2.89251 13.6131 3.50002V5.70494V7.0574C13.6131 7.38877 13.3445 7.6574 13.0131 7.6574Z" fill="#3772FF"/>
</svg>
