<svg width="15" height="15" viewBox="0 0 15 15" fill="none" xmlns="http://www.w3.org/2000/svg">
<path d="M2.1875 13.75V3.125C2.1875 1.875 3.025 1.25 4.0625 1.25H9.0625C10.1 1.25 10.9375 1.875 10.9375 3.125V13.75H2.1875Z" stroke="white" stroke-linecap="round" stroke-linejoin="round"/>
<path d="M1.25 13.75H11.875" stroke="white" stroke-linecap="round" stroke-linejoin="round"/>
<path d="M5.24375 6.25002H7.8875C8.5375 6.25002 9.06875 5.93752 9.06875 5.06877V4.30002C9.06875 3.43127 8.5375 3.11877 7.8875 3.11877H5.24375C4.59375 3.11877 4.0625 3.43127 4.0625 4.30002V5.06877C4.0625 5.93752 4.59375 6.25002 5.24375 6.25002Z" stroke="white" stroke-linecap="round" stroke-linejoin="round"/>
<path d="M4.0625 8.125H5.9375" stroke="white" stroke-linecap="round" stroke-linejoin="round"/>
<path d="M10.9375 10.0062L13.75 10V6.25L12.5 5.625" stroke="white" stroke-linecap="round" stroke-linejoin="round"/>
</svg>
