<svg width="12" height="12" viewBox="0 0 12 12" fill="none" xmlns="http://www.w3.org/2000/svg">
<path d="M10.6665 2.49996H8.9165V1.33329C8.9165 0.685793 8.39734 0.166626 7.74984 0.166626H4.24984C3.60234 0.166626 3.08317 0.685793 3.08317 1.33329V2.49996H1.33317C0.685671 2.49996 0.166504 3.01913 0.166504 3.66663V10.0833C0.166504 10.7308 0.685671 11.25 1.33317 11.25H10.6665C11.314 11.25 11.8332 10.7308 11.8332 10.0833V3.66663C11.8332 3.01913 11.314 2.49996 10.6665 2.49996ZM4.24984 1.33329H7.74984V2.49996H4.24984V1.33329ZM10.6665 10.0833H1.33317V8.91663H10.6665V10.0833ZM10.6665 7.16663H1.33317V3.66663H3.08317V4.83329H4.24984V3.66663H7.74984V4.83329H8.9165V3.66663H10.6665V7.16663Z" fill="#3772FF"/>
</svg>
