<svg width="20" height="18" viewBox="0 0 20 18" fill="none" xmlns="http://www.w3.org/2000/svg">
<path d="M19.2309 0L11.5386 6L12.9672 2.46014L19.2309 0Z" fill="#E17726"/>
<path d="M0.769043 0L8.46135 6L7.09025 2.43708L0.769043 0Z" fill="#E27625"/>
<path d="M15.8033 12.75L13.8462 16.0014L18.034 17.25L19.2308 12.8218L15.8033 12.75Z" fill="#E27625"/>
<path d="M0 12.8218L1.19116 17.25L5.38462 16.0014L3.43214 12.75L0 12.8218Z" fill="#E27625"/>
<path d="M5.91265 7.78606L4.61523 9.56393L9.23062 9.75L9.07451 5.25L5.91265 7.78606Z" fill="#E27625"/>
<path d="M14.8565 7.8085L11.6453 5.25L11.5386 9.75L16.154 9.56606L14.8565 7.8085Z" fill="#E27625"/>
<path d="M6.15381 16.5L8.4615 15.2399L6.47361 13.5L6.15381 16.5Z" fill="#E27625"/>
<path d="M11.5386 15.2399L13.8463 16.5L13.5265 13.5L11.5386 15.2399Z" fill="#E27625"/>
<path d="M13.8463 16.1829L11.5386 15L11.7223 16.5838L11.7022 17.25L13.8463 16.1829Z" fill="#D5BFB2"/>
<path d="M6.15381 16.1829L8.29791 17.25L8.2845 16.5838L8.4615 15L6.15381 16.1829Z" fill="#D5BFB2"/>
<path d="M5.79288 15.75L6.15388 12.75L3.84619 12.8162L5.79288 15.75Z" fill="#CC6228"/>
<path d="M13.8462 12.75L14.2061 15.75L16.1539 12.8162L13.8462 12.75Z" fill="#CC6228"/>
<path d="M16.154 9.75L11.5386 9.92932L11.9657 12L12.6475 10.7532L14.2895 11.4056L16.154 9.75Z" fill="#CC6228"/>
<path d="M6.48776 11.4056L8.12166 10.7532L8.80354 12L9.23062 9.92932L4.61523 9.75L6.48776 11.4056Z" fill="#CC6228"/>
<path d="M4.61523 9.75L6.1537 13.5L6.10169 11.633L4.61523 9.75Z" fill="#E27525"/>
<path d="M13.9046 11.633L13.8462 13.5L15.3847 9.75L13.9046 11.633Z" fill="#E27525"/>
<path d="M8.96162 9.75L8.46143 11.8139L9.09613 14.25L9.23066 11.0426L8.96162 9.75Z" fill="#E27525"/>
<path d="M11.0318 9.75L10.769 11.0356L10.8956 14.25L11.5383 11.8139L11.0318 9.75Z" fill="#E27525"/>
<path d="M11.3509 11.9306L10.769 14.7292L11.192 15L13.7669 13.1294L13.846 11.25L11.3509 11.9306Z" fill="#F5841F"/>
<path d="M6.15381 11.25L6.22435 13.1294L8.8066 15L9.23073 14.7292L8.64722 11.9306L6.15381 11.25Z" fill="#F5841F"/>
<path d="M12.0793 17.4119L12.1031 16.8426L11.9024 16.7081H8.86674L8.67403 16.8426L8.68989 17.4119L6.15381 16.5L7.03961 17.0507L8.84294 18H11.9262L13.7295 17.0507L14.6153 16.5L12.0793 17.4119Z" fill="#C0AC9D"/>
<path d="M19.3467 6.0025L20.0001 2.89082L19.0204 0L11.5386 5.44583L14.4165 7.83255L18.4834 9L19.3781 7.97003L18.989 7.69583L19.611 7.1384L19.1368 6.77254L19.7588 6.30751L19.3467 6.0025Z" fill="#763E1A"/>
<path d="M0 2.89082L0.661082 6.0025L0.241299 6.30751L0.863313 6.77254L0.389142 7.1384L1.01116 7.69583L0.622015 7.97003L1.51673 9L5.58357 7.83255L8.46154 5.44583L0.97975 0L0 2.89082Z" fill="#763E1A"/>
<path d="M18.6119 8.64957L14.4649 7.5L15.7178 9.29537L13.8462 12.75L16.3201 12.7197H20L18.6119 8.64957Z" fill="#F5841F"/>
<path d="M5.53439 7.5L1.38203 8.64957L0 12.7197H3.68464L6.15385 12.75L4.27985 9.29537L5.53439 7.5Z" fill="#F5841F"/>
<path d="M11.6012 9.57814L11.8723 5.29858L13.077 2.25H7.69238L8.89708 5.29858L9.1682 9.57814L9.27193 10.9275L9.27979 14.25H11.4896L11.4974 10.9275L11.6012 9.57814Z" fill="#F5841F"/>
</svg>
