<svg width="12" height="12" viewBox="0 0 12 12" fill="none" xmlns="http://www.w3.org/2000/svg">
<path d="M10.6665 2.49996H9.39484C9.459 2.31913 9.49984 2.12079 9.49984 1.91663C9.49984 0.948293 8.71817 0.166626 7.74984 0.166626C7.13734 0.166626 6.6065 0.481626 6.2915 0.954126L5.99984 1.34496L5.70817 0.948293C5.39317 0.481626 4.86234 0.166626 4.24984 0.166626C3.2815 0.166626 2.49984 0.948293 2.49984 1.91663C2.49984 2.12079 2.54067 2.31913 2.60484 2.49996H1.33317C0.685671 2.49996 0.172337 3.01913 0.172337 3.66663L0.166504 10.0833C0.166504 10.7308 0.685671 11.25 1.33317 11.25H10.6665C11.314 11.25 11.8332 10.7308 11.8332 10.0833V3.66663C11.8332 3.01913 11.314 2.49996 10.6665 2.49996ZM7.74984 1.33329C8.07067 1.33329 8.33317 1.59579 8.33317 1.91663C8.33317 2.23746 8.07067 2.49996 7.74984 2.49996C7.429 2.49996 7.1665 2.23746 7.1665 1.91663C7.1665 1.59579 7.429 1.33329 7.74984 1.33329ZM4.24984 1.33329C4.57067 1.33329 4.83317 1.59579 4.83317 1.91663C4.83317 2.23746 4.57067 2.49996 4.24984 2.49996C3.929 2.49996 3.6665 2.23746 3.6665 1.91663C3.6665 1.59579 3.929 1.33329 4.24984 1.33329ZM10.6665 10.0833H1.33317V8.91663H10.6665V10.0833ZM10.6665 7.16663H1.33317V3.66663H4.2965L3.08317 5.31746L4.02817 5.99996L5.99984 3.31663L7.9715 5.99996L8.9165 5.31746L7.70317 3.66663H10.6665V7.16663Z" fill="#3772FF"/>
</svg>
