<svg width="12" height="12" viewBox="0 0 12 12" fill="none" xmlns="http://www.w3.org/2000/svg">
<path fill-rule="evenodd" clip-rule="evenodd" d="M10.6665 0.75H1.33317C0.691504 0.75 0.166504 1.275 0.166504 1.91667V10.0833C0.166504 10.725 0.691504 11.25 1.33317 11.25H10.6665C11.3082 11.25 11.8332 10.725 11.8332 10.0833V1.91667C11.8332 1.275 11.3082 0.75 10.6665 0.75ZM10.6665 10.0833H1.33317V1.91667H10.6665V10.0833Z" fill="#3772FF"/>
<path fill-rule="evenodd" clip-rule="evenodd" d="M10.3225 5.07833L9.49417 4.25L7.645 6.09917L6.8225 5.27083L6 6.09333L7.645 7.75L10.3225 5.07833Z" fill="#3772FF"/>
<path d="M4.83317 3.08337H1.9165V4.25004H4.83317V3.08337Z" fill="#3772FF"/>
<path d="M4.83317 5.41663H1.9165V6.58329H4.83317V5.41663Z" fill="#3772FF"/>
<path d="M4.83317 7.75H1.9165V8.91667H4.83317V7.75Z" fill="#3772FF"/>
</svg>
