<svg width="37" height="36" viewBox="0 0 37 36" fill="none" xmlns="http://www.w3.org/2000/svg">
<path d="M1 17.999L1 17.9994C0.99864 27.3878 8.61068 34.9999 17.9962 35L1 17.999ZM1 17.999C0.99728 8.61099 8.60903 1 17.9992 1C27.3893 1 35.0014 8.61233 35.0014 18.0007C35.0014 27.3873 27.3896 34.9986 17.9964 35L1 17.999Z" stroke="#F19242" stroke-width="2"/>
<path d="M25.0826 13.5913C24.8508 11.1806 22.7696 10.3727 20.1396 10.1423V6.79706H18.1045V10.053C17.5701 10.053 17.0228 10.0631 16.4799 10.0746V6.79706H14.4447L14.4433 10.1394C14.0026 10.1481 13.569 10.1567 13.147 10.1567V10.1466L10.3399 10.1452V12.3197C10.3399 12.3197 11.8436 12.2909 11.8177 12.3183C12.6429 12.3183 12.9108 12.7964 12.9886 13.2096V17.02C13.0462 17.02 13.1197 17.0229 13.2032 17.0344H12.9886L12.9872 22.3728C12.9512 22.632 12.7985 23.0453 12.2224 23.0467C12.2483 23.0697 10.7432 23.0467 10.7432 23.0467L10.3385 25.4775H12.9886C13.4812 25.4775 13.9666 25.4862 14.4419 25.489L14.4433 28.8717H16.477V25.525C17.0344 25.5366 17.5745 25.5409 18.1031 25.5409L18.1016 28.8717H20.1367V25.4962C23.5588 25.3004 25.9569 24.4378 26.2536 21.2236C26.4941 18.6358 25.2771 17.4794 23.3341 17.0128C24.5166 16.4138 25.2555 15.3553 25.0826 13.5913ZM22.2338 20.8232C22.2338 23.3506 17.9057 23.064 16.5245 23.064V18.5811C17.9057 18.584 22.2338 18.1879 22.2338 20.8232ZM21.2861 14.4999C21.2861 16.7997 17.6738 16.5304 16.5245 16.5319V12.468C17.6753 12.468 21.2875 12.1022 21.2861 14.4999Z" fill="#F19242"/>
</svg>
