<svg width="36" height="36" viewBox="0 0 36 36" fill="none" xmlns="http://www.w3.org/2000/svg">
<circle cx="18" cy="18" r="18" fill="#607BEE"/>
<path d="M17.7579 7.0328V7.04374C17.7688 7.09841 17.7688 7.16402 17.7688 7.22962V15.1133C17.7579 15.1571 17.7251 15.168 17.6923 15.1899C17.4627 15.2992 17.244 15.3976 17.0144 15.496C16.6973 15.6382 16.3692 15.7912 16.0521 15.9334L14.904 16.4582C14.5869 16.6004 14.2698 16.7425 13.9637 16.8847C13.5919 17.0596 13.2092 17.2237 12.8374 17.3986C12.5203 17.5408 12.2032 17.6938 11.8752 17.836C11.6128 17.9563 11.3504 18.0656 11.0989 18.1859C11.077 18.1968 11.0551 18.2077 11.0333 18.2077C11.0223 18.2077 11.0223 18.2077 11.0114 18.1968L11.3066 17.7048C11.8752 16.7644 12.4329 15.835 13.0015 14.8946C13.6028 13.8887 14.2152 12.8827 14.8166 11.8767C15.3742 10.9473 15.9428 10.0179 16.5005 9.08847C16.905 8.41054 17.3205 7.7326 17.7251 7.05467C17.736 7.0328 17.747 7.02187 17.747 7H17.7579C17.747 7.01093 17.7579 7.02187 17.7579 7.0328Z" fill="white"/>
<path d="M24.4712 18.1968L24.4821 18.2077L17.8231 22.1441C17.8012 22.1551 17.7793 22.166 17.7684 22.1769C17.7356 22.1769 17.7356 22.1441 17.7356 22.1332V15.2773C17.7356 15.2445 17.7356 15.2008 17.7465 15.168C17.7574 15.1243 17.7903 15.1352 17.8231 15.1461C17.9652 15.2117 18.1183 15.2773 18.2604 15.3429C18.6869 15.5398 19.1133 15.7366 19.5398 15.9225C19.9115 16.0865 20.2724 16.2614 20.6441 16.4254C21.0159 16.5895 21.3877 16.7644 21.7594 16.9284C22.0765 17.0706 22.4046 17.2237 22.7217 17.3658C23.0388 17.5079 23.3668 17.661 23.6839 17.8032C23.9354 17.9125 24.1869 18.0328 24.4384 18.1421C24.4384 18.1749 24.4493 18.1859 24.4712 18.1968Z" fill="white"/>
<path d="M17.7574 28.9672C17.7574 28.9781 17.7465 28.9891 17.7465 29H17.7356C17.7356 28.9781 17.7137 28.9672 17.7028 28.9453C17.0248 27.994 16.3469 27.0318 15.669 26.0805C14.9801 25.1074 14.2803 24.1233 13.5914 23.1501C12.9244 22.2097 12.2465 21.2585 11.5795 20.3181C11.4046 20.0666 11.2296 19.826 11.0547 19.5746C11.0437 19.5527 11.0328 19.5418 11.0109 19.5089C11.0437 19.5089 11.0656 19.5308 11.0765 19.5418C12.0278 20.0994 12.9682 20.6571 13.9195 21.2147C15.0129 21.8598 16.0954 22.505 17.1889 23.1501L17.7465 23.4781C17.7684 23.5 17.7684 23.5219 17.7684 23.5437V28.8141C17.7684 28.8688 17.7684 28.9235 17.7574 28.9672Z" fill="white"/>
<path d="M11 18.2187V18.2078C11.3499 18.0547 11.6889 17.8907 12.0388 17.7376C12.4871 17.5298 12.9354 17.333 13.3837 17.1252C13.7227 16.9722 14.0726 16.8082 14.4115 16.6551C14.9145 16.4254 15.4066 16.2068 15.9095 15.9771C16.2485 15.8241 16.5875 15.671 16.9374 15.507C17.1779 15.3976 17.4294 15.2883 17.67 15.1789C17.6918 15.168 17.7246 15.1571 17.7356 15.1352C17.7465 15.1352 17.7465 15.1461 17.7356 15.1571V22.1004C17.7356 22.1332 17.7246 22.166 17.7465 22.1879C17.7246 22.2207 17.7028 22.1879 17.6918 22.1769C17.5934 22.1223 17.495 22.0676 17.3966 22.002C15.2863 20.7555 13.165 19.498 11.0547 18.2515C11.0437 18.2406 11.0219 18.2296 11 18.2187Z" fill="white"/>
<path d="M24.4493 19.5089H24.4602C24.4602 19.5308 24.4384 19.5527 24.4274 19.5746C22.4155 22.4066 20.4036 25.2495 18.3916 28.0815C18.1839 28.3767 17.9652 28.672 17.7574 28.9672C17.7465 28.9563 17.7465 28.9453 17.7465 28.9344V23.4672C18.2058 23.1938 18.6541 22.9314 19.1133 22.6581C20.8847 21.6084 22.6561 20.5696 24.4165 19.5199C24.4274 19.5308 24.4384 19.5199 24.4493 19.5089Z" fill="white"/>
<path d="M17.7465 15.1571V7.13121C17.7465 7.09841 17.736 7.07654 17.7579 7.04374C19.9776 10.7286 22.1968 14.4026 24.4056 18.0875C24.4274 18.1203 24.4602 18.164 24.4712 18.2078C24.3181 18.1531 24.1759 18.0765 24.0338 18.0109C23.8588 17.9344 23.673 17.8469 23.498 17.7704C23.3887 17.7157 23.2684 17.672 23.159 17.6173C22.9732 17.5298 22.7873 17.4533 22.6014 17.3658C22.492 17.3221 22.3827 17.2674 22.2734 17.2127L21.5517 16.8847C21.4314 16.83 21.3111 16.7753 21.1799 16.7207L20.6551 16.4911C20.5457 16.4473 20.4364 16.3926 20.327 16.338L19.6054 16.0099C19.4851 15.9553 19.3648 15.9006 19.2336 15.8459L18.7087 15.6163C18.5885 15.5616 18.4791 15.507 18.3588 15.4523C18.1511 15.3539 17.9433 15.2555 17.7246 15.168C17.7575 15.1571 17.7465 15.1571 17.7465 15.1571Z" fill="white"/>
</svg>
