<svg width="38" height="38" viewBox="0 0 38 38" fill="none" xmlns="http://www.w3.org/2000/svg">
<path d="M19 37C28.9411 37 37 28.9411 37 19C37 9.05887 28.9411 1 19 1C9.05888 1 1 9.05887 1 19C1 28.9411 9.05888 37 19 37Z" fill="black" stroke="black" stroke-width="1.2373" stroke-miterlimit="11.3386"/>
<path d="M9.07024 8.98804C8.31128 9.78495 7.68513 10.4554 7.67881 10.468C7.67248 10.487 8.35555 11.1574 9.19673 11.9543C10.0379 12.7575 10.7716 13.4596 10.8222 13.5039L10.917 13.5924L10.7463 13.877C9.24733 16.3563 8.93742 19.3415 9.87979 22.0864C10.0569 22.6051 10.3605 23.2691 10.6198 23.7055C10.7463 23.9206 10.8032 24.0597 10.7905 24.085C10.7779 24.1103 10.0126 24.9199 9.08921 25.8876C8.16581 26.8489 7.41317 27.6521 7.40052 27.6648C7.3942 27.6838 9.98099 30.182 10.2276 30.3844L10.3225 30.4666L11.7835 28.9424C12.5868 28.1012 13.3394 27.3106 13.4532 27.1904L13.6683 26.9754L13.8707 27.1019C14.9016 27.7597 16.1096 28.215 17.4441 28.4554C18.1145 28.5755 19.3921 28.6072 20.1068 28.5186C21.4856 28.3605 22.8517 27.8988 23.9711 27.2221L24.2621 27.045L24.572 27.3485C25.2487 28.0063 27.7786 30.4097 27.8039 30.4223C27.8292 30.435 30.6057 27.532 30.5994 27.494C30.5931 27.475 28.6893 25.6472 27.5256 24.553L27.1398 24.1862L27.3169 23.8953C28.8032 21.4223 29.1131 18.4244 28.1518 15.6606C28.0126 15.2558 27.5889 14.345 27.3422 13.9276L27.222 13.7189L28.8475 12.0176C29.7392 11.0878 30.4666 10.3099 30.4603 10.2909C30.435 10.2277 27.5889 7.5397 27.5509 7.5397C27.5256 7.5397 26.8109 8.26703 25.9571 9.16513C25.1033 10.0569 24.3949 10.7906 24.3759 10.7969C24.3633 10.8032 24.2811 10.7653 24.2052 10.7084C23.9901 10.5629 23.4462 10.2656 23.1426 10.1265C22.2192 9.70273 21.3591 9.44342 20.3598 9.29795C19.8411 9.22206 18.2853 9.20941 17.8046 9.27898C16.6535 9.44342 15.7111 9.72803 14.7498 10.2087C14.4715 10.3415 14.1489 10.5186 14.0224 10.5945L13.7948 10.7337L13.5354 10.4807C13.3963 10.3415 12.7638 9.747 12.1377 9.14616C11.5116 8.55164 10.8728 7.94447 10.721 7.79268L10.4427 7.52072L9.07024 8.98804ZM19.6893 13.1117C20.695 13.2319 21.5931 13.5734 22.4216 14.1553C22.8454 14.4526 23.4778 15.085 23.7751 15.5088C25.4638 17.8995 25.1412 21.1504 23.0161 23.1426C21.2009 24.8377 18.5762 25.2171 16.3689 24.0913C14.7751 23.2755 13.6493 21.7828 13.2888 19.993C13.1749 19.4237 13.1749 18.3612 13.2888 17.7983C13.3963 17.2417 13.5418 16.8433 13.8137 16.2867C14.9016 14.0984 17.2607 12.8208 19.6893 13.1117Z" fill="white"/>
</svg>
