<svg width="32" height="36" viewBox="0 0 32 36" fill="none" xmlns="http://www.w3.org/2000/svg">
<g clip-path="url(#clip0_147_1824)">
<path d="M20.507 7.0195H18V10.805H20.507V7.0195Z" fill="#1682FE"/>
<path d="M13.312 0H10.8051V3.78552H13.312V0Z" fill="#1682FE"/>
<path d="M6.11695 3.61002H3.60999V7.39553H6.11695V3.61002Z" fill="#60D8A4"/>
<path d="M2.53203 18H0V28.805H2.53203V18Z" fill="#F4BB3B"/>
<path d="M2.53203 7.19498H0V18H2.53203V7.19498Z" fill="#60D8A4"/>
<path d="M24.0919 10.6295H21.585V14.415H24.0919V10.6295Z" fill="#1682FE"/>
<path d="M24.0919 21.585H21.585V25.3705H24.0919V21.585Z" fill="#FF5A5A"/>
<path d="M20.507 25.195H18V28.9805H20.507V25.195Z" fill="#FF5A5A"/>
<path d="M13.312 32.2145H10.8051V36H13.312V32.2145Z" fill="#FF5A5A"/>
<path d="M6.11695 28.6045H3.60999V32.39H6.11695V28.6045Z" fill="#F4BB3B"/>
<path d="M31.1364 14.39V7.19499H27.5264V3.61003H20.3314V0H13.1364V3.61003H5.94145V7.22006H2.33142V28.805H5.94145V32.415H13.1364V36.0251H20.3314V32.415H27.5264V28.805H31.1364V21.585H23.9414V25.195H20.3314V28.805H13.1364V25.195H9.55148V10.805H13.1615V7.19499H20.3565V10.805H23.9665V14.415H31.1364V14.39Z" fill="#3A3A3A"/>
</g>
<defs>
<clipPath id="clip0_147_1824">
<rect width="31.1365" height="36" fill="white"/>
</clipPath>
</defs>
</svg>
