<svg width="42" height="42" viewBox="0 0 42 42" fill="none" xmlns="http://www.w3.org/2000/svg">
<circle cx="21" cy="21" r="21" fill="#21272F"/>
<path d="M10.5013 11.1588H24.9968C25.826 11.1588 26.4982 11.8309 26.4982 12.6602V16.7135H24.9968V12.6602H10.5013V21.8382H12.9283V23.3396H10.5013C9.67217 23.3396 8.99995 22.6674 8.99995 21.8382V12.6602C8.99995 11.831 9.67212 11.1588 10.5013 11.1588Z" fill="#A812D7"/>
<path d="M16.0032 18.2149H30.4986C31.3276 18.2149 32 18.8869 32 19.7163V28.8943C32 29.7235 31.3278 30.3957 30.4986 30.3957H25.8777L24.3998 32.1528C23.7998 32.8662 22.701 32.8652 22.1019 32.1528L20.624 30.3957H16.0031C15.5367 30.3957 15.1199 30.183 14.8446 29.8494C14.8293 29.8308 14.8144 29.8119 14.8 29.7927C14.6127 29.5422 14.5017 29.2312 14.5017 28.8943V19.7163C14.5018 18.8872 15.1739 18.2149 16.0032 18.2149ZM16.0032 28.8943H21.323L23.2509 31.1864L25.1788 28.8943H30.4986V19.7163H16.0032V28.8943Z" fill="#A812D7"/>
<path d="M27.9958 23.3245H18.506C18.0915 23.3245 17.7554 22.9884 17.7554 22.5738C17.7554 22.1593 18.0915 21.8232 18.506 21.8232H27.9958C28.4104 21.8232 28.7465 22.1593 28.7465 22.5738C28.7465 22.9884 28.4104 23.3245 27.9958 23.3245Z" fill="#A812D7"/>
<path d="M27.9958 26.7167H24.1112C23.6966 26.7167 23.3605 26.3806 23.3605 25.966C23.3605 25.5514 23.6966 25.2153 24.1112 25.2153H27.9958C28.4104 25.2153 28.7465 25.5514 28.7465 25.966C28.7465 26.3806 28.4104 26.7167 27.9958 26.7167Z" fill="#A812D7"/>
</svg>
