<svg width="42" height="42" viewBox="0 0 42 42" fill="none" xmlns="http://www.w3.org/2000/svg">
<circle cx="21" cy="21" r="21" fill="#21272F"/>
<path d="M24.8769 23.286C25.2729 22.6159 25.5 21.8346 25.5 21C25.5 20.1654 25.2729 19.384 24.8769 18.714L26.6704 16.9205C27.1098 16.4812 27.1098 15.7688 26.6704 15.3295C26.2311 14.8902 25.5189 14.8902 25.0795 15.3295L23.286 17.123C22.6159 16.7272 21.8346 16.5 21 16.5C20.1654 16.5 19.384 16.7272 18.714 17.123L16.9204 15.3295C16.4811 14.8902 15.7689 14.8902 15.3295 15.3295C14.8902 15.7688 14.8902 16.4812 15.3295 16.9205L17.1231 18.714C16.7271 19.384 16.5 20.1654 16.5 21C16.5 21.8346 16.7271 22.6159 17.1231 23.286L15.3295 25.0795C14.8902 25.5189 14.8902 26.2311 15.3295 26.6704C15.7689 27.1098 16.4811 27.1098 16.9204 26.6704L18.714 24.8769C19.384 25.2729 20.1654 25.5 21 25.5C21.8346 25.5 22.6159 25.2729 23.286 24.8769L25.0795 26.6704C25.5189 27.1098 26.2311 27.1098 26.6704 26.6704C27.1098 26.2311 27.1098 25.5189 26.6704 25.0795L24.8769 23.286ZM21 23.25C19.7574 23.25 18.75 22.2426 18.75 21C18.75 19.7574 19.7574 18.75 21 18.75C22.2426 18.75 23.25 19.7574 23.25 21C23.25 22.2426 22.2426 23.25 21 23.25Z" fill="#A812D7"/>
<path d="M9 14.625C9 11.5184 11.0147 9 13.5 9H28.5C30.9853 9 33 11.5184 33 14.625V27.375C33 30.4816 30.9853 33 28.5 33H13.5C11.0147 33 9 30.4816 9 27.375V14.625ZM13.5 11.25C12.0088 11.25 10.8 12.761 10.8 14.625V27.375C10.8 29.2389 12.0088 30.75 13.5 30.75H28.5C29.9911 30.75 31.2 29.2389 31.2 27.375V14.625C31.2 12.761 29.9911 11.25 28.5 11.25H13.5Z" fill="#A812D7"/>
</svg>
