<svg width="30" height="24" viewBox="0 0 30 24" fill="none" xmlns="http://www.w3.org/2000/svg">
<path d="M30 4.92761H0V24H30V4.92761ZM14.9999 20.5969C11.512 20.5969 8.68421 17.851 8.68421 14.4637C8.68421 11.0767 11.5119 8.3307 14.9999 8.3307C18.488 8.3307 21.3159 11.0767 21.3159 14.4637C21.3159 17.851 18.488 20.5969 14.9999 20.5969ZM11.4523 0H18.5477L20.8817 3.65434H9.11854L11.4523 0ZM18.7895 14.4637C18.7895 16.496 17.0929 18.1437 14.9999 18.1437C12.9072 18.1437 11.2106 16.496 11.2106 14.4637C11.2106 12.4314 12.9072 10.7839 14.9999 10.7839C17.0929 10.784 18.7895 12.4314 18.7895 14.4637Z" fill="#36404E"/>
</svg>
