<svg width="17" height="17" viewBox="0 0 17 17" fill="none" xmlns="http://www.w3.org/2000/svg">
<path d="M15.9001 2.84994C16.2001 2.54994 16.4001 2.24994 16.4001 1.84994C16.5001 1.44994 16.4001 1.04994 16.1001 0.849941C15.8001 0.549941 15.5001 0.449953 15.1001 0.549953C14.7001 0.549953 14.4001 0.649947 14.1001 0.949947L8.30009 6.74995L2.50004 0.949947C2.20004 0.649947 1.90004 0.549953 1.50004 0.549953C1.10004 0.449953 0.800036 0.549941 0.500036 0.849941C0.300036 1.04994 0.200109 1.44994 0.200109 1.84994C0.200109 2.24994 0.400109 2.54994 0.700109 2.84994L6.50004 8.74995L0.700109 14.55C0.400109 14.85 0.200109 15.1499 0.200109 15.6499C0.100109 16.0499 0.200036 16.3499 0.500036 16.6499C0.800036 16.8499 1.10004 16.9499 1.50004 16.9499C1.90004 16.9499 2.20004 16.7499 2.50004 16.4499L8.30009 10.6499L14.1001 16.4499C14.4001 16.7499 14.7001 16.9499 15.1001 16.9499C15.5001 16.9499 15.9001 16.8499 16.1001 16.6499C16.4001 16.3499 16.5001 16.0499 16.4001 15.6499C16.4001 15.2499 16.2001 14.85 15.9001 14.55L10.1001 8.64994L15.9001 2.84994Z" fill="white"/>
</svg>
