<svg width="42" height="31" viewBox="0 0 42 31" fill="none" xmlns="http://www.w3.org/2000/svg">
<path fill-rule="evenodd" clip-rule="evenodd" d="M42 24.74C42 13.1613 36.8219 3.77598 36.8219 3.77598C31.6438 -0.10758 26.7175 0.000298841 26.7175 0.000298841L26.214 0.575641C32.3271 2.4455 35.1678 5.14242 35.1678 5.14242C26.626 0.460882 16.5922 0.460038 8.30651 4.09961C6.97603 4.71091 6.18493 5.14242 6.18493 5.14242C6.18493 5.14242 9.16952 2.30167 15.6421 0.431805L15.2825 0.000298841C15.2825 0.000298841 10.3562 -0.10758 5.17808 3.77598C5.17808 3.77598 0 13.1613 0 24.74C0 24.74 3.02055 29.9541 10.9675 30.2058C10.9675 30.2058 12.2979 28.5876 13.3767 27.2212C8.80993 25.8548 7.0839 22.978 7.0839 22.978C7.61289 23.3483 8.48518 23.8283 8.55822 23.877C14.6277 27.276 23.2491 28.3896 30.9966 25.1356C32.2551 24.6681 33.6575 23.9849 35.1318 23.014C35.1318 23.014 33.3339 25.9626 28.6233 27.2931C29.7021 28.6595 30.9966 30.2058 30.9966 30.2058C38.9435 29.9541 42 24.74 42 24.74ZM27.4007 21.3958C29.4503 21.3958 31.0685 19.5979 31.0685 17.4044C31.0685 15.2109 29.4503 13.413 27.4007 13.413C25.351 13.413 23.7329 15.2109 23.7329 17.4044C23.7329 19.5979 25.387 21.3958 27.4007 21.3958ZM10.6079 17.4044C10.6079 15.2109 12.226 13.413 14.2757 13.413C16.3253 13.413 17.9795 15.2109 17.9435 17.4044C17.9435 19.5979 16.3253 21.3958 14.2757 21.3958C12.262 21.3958 10.6079 19.5979 10.6079 17.4044Z" fill="white"/>
</svg>
