<svg width="42" height="34" viewBox="0 0 42 34" fill="none" xmlns="http://www.w3.org/2000/svg">
<path d="M16.2838 23.1613C16.2838 24.99 15.33 27.9825 13.0725 27.9825C10.815 27.9825 9.86125 24.99 9.86125 23.1613C9.86125 21.3325 10.815 18.34 13.0725 18.34C15.33 18.34 16.2838 21.3325 16.2838 23.1613ZM42 18.7425C42 21.5338 41.72 24.4913 40.4688 27.055C37.1525 33.7575 28.035 33.6 21.5075 33.6C14.875 33.6 5.215 33.8363 1.7675 27.055C0.49 24.5175 0 21.5338 0 18.7425C0 15.0763 1.21625 11.6112 3.63125 8.8025C3.17625 7.42 2.9575 5.9675 2.9575 4.5325C2.9575 2.65125 3.38625 1.70625 4.235 0C8.19875 0 10.7362 0.7875 13.755 3.15C16.2925 2.54625 18.9 2.275 21.5162 2.275C23.8787 2.275 26.2587 2.52875 28.5512 3.08C31.5262 0.74375 34.0638 0 37.9837 0C38.8413 1.70625 39.2612 2.65125 39.2612 4.5325C39.2612 5.9675 39.0337 7.39375 38.5875 8.75C40.9937 11.585 42 15.0763 42 18.7425ZM36.3737 23.1613C36.3737 19.32 34.0375 15.9338 29.9425 15.9338C28.2887 15.9338 26.705 16.2313 25.0425 16.4587C23.7388 16.66 22.435 16.7388 21.0963 16.7388C19.7663 16.7388 18.4625 16.66 17.15 16.4587C15.5138 16.2313 13.9125 15.9338 12.25 15.9338C8.155 15.9338 5.81875 19.32 5.81875 23.1613C5.81875 30.8438 12.8537 32.025 18.9787 32.025H23.1963C29.3475 32.025 36.3737 30.8525 36.3737 23.1613ZM29.1462 18.34C26.8888 18.34 25.935 21.3325 25.935 23.1613C25.935 24.99 26.8888 27.9825 29.1462 27.9825C31.4037 27.9825 32.3575 24.99 32.3575 23.1613C32.3575 21.3325 31.4037 18.34 29.1462 18.34Z" fill="white"/>
</svg>
