<svg width="42" height="35" viewBox="0 0 42 35" fill="none" xmlns="http://www.w3.org/2000/svg">
<path d="M37.6828 8.50126C37.7095 8.87434 37.7095 9.2475 37.7095 9.62058C37.7095 21 29.0484 34.1118 13.2183 34.1118C8.34138 34.1118 3.81094 32.6993 0 30.2476C0.692921 30.3275 1.3591 30.3541 2.07868 30.3541C6.10274 30.3541 9.80712 28.995 12.7653 26.6765C8.98098 26.5965 5.80964 24.1181 4.71698 20.7069C5.25002 20.7868 5.78298 20.8401 6.34268 20.8401C7.1155 20.8401 7.8884 20.7335 8.6079 20.547C4.66374 19.7475 1.70552 16.283 1.70552 12.099V11.9924C2.85142 12.632 4.18402 13.0318 5.59636 13.085C3.27782 11.5393 1.75884 8.901 1.75884 5.9162C1.75884 4.31724 2.18516 2.8515 2.9314 1.5723C7.16874 6.79566 13.5381 10.2068 20.6802 10.5799C20.5469 9.94034 20.467 9.27416 20.467 8.6079C20.467 3.86418 24.3046 0 29.0749 0C31.5533 0 33.7918 1.03934 35.3642 2.71828C37.3096 2.3452 39.1751 1.62562 40.8274 0.6396C40.1878 2.63838 38.8287 4.31732 37.0432 5.38324C38.7754 5.19678 40.4544 4.71698 42 4.0508C40.8276 5.75632 39.3618 7.2753 37.6828 8.50126Z" fill="white"/>
</svg>
