<svg width="76" height="76" viewBox="0 0 76 76" fill="none" xmlns="http://www.w3.org/2000/svg">
<path d="M75.6001 37.7C75.6001 27.3 71.9 18.4 64.5 11C57.1 3.6 48.2001 0 37.8 0C27.4 0 18.5001 3.7 11.1001 11C3.7001 18.4 0 27.3 0 37.7C0 48.1 3.7001 57 11.1001 64.4C18.5001 71.8 27.4 75.4 37.8 75.4C48.2001 75.4 57.1 71.7 64.5 64.4C71.9 57 75.6001 48.1 75.6001 37.7ZM23.4 23.5C27.3 19.8 32.1001 18 37.7001 18C43.3001 18 48 19.9 52 23.5C55.9 27.2 57.9 31.7 57.9 37C57.9 42.3 55.9 46.7 52 50.4C48 54.1 43.3001 55.9 37.7001 55.9C36.7001 55.9 35.6001 55.8 34.6001 55.7H34.5C32.1 55.4 29.2 55.7 25.8 56.5C22.3 57.3 20.1001 57.4 19.2001 56.9C18.3001 56.3 18.7 55.5 20.4 54.5C22.7 53.2 23.5 51.6 22.8 49.8C19.2 46.2 17.4 41.9 17.4 37C17.5 31.8 19.4 27.3 23.4 23.5ZM47.6001 34.4C46.8001 34.4 46 34.7 45.4 35.2C44.8 35.8 44.6001 36.5 44.6001 37.4C44.6001 38.2 44.9 38.9 45.4 39.5C46 40.1 46.7001 40.4 47.6001 40.4C48.4001 40.4 49.1001 40.1 49.7001 39.5C50.3001 38.9 50.6001 38.2 50.6001 37.4C50.6001 36.6 50.3001 35.9 49.7001 35.2C49.2001 34.7 48.5001 34.4 47.6001 34.4ZM28.4 34.4C27.6 34.4 26.8001 34.7 26.2001 35.2C25.6001 35.8 25.4 36.5 25.4 37.4C25.4 38.2 25.7001 38.9 26.2001 39.5C26.8001 40.1 27.5 40.4 28.4 40.4C29.2 40.4 29.9 40.1 30.5 39.5C31.1 38.9 31.4 38.2 31.4 37.4C31.4 36.6 31.1 35.9 30.5 35.2C29.9 34.7 29.2 34.4 28.4 34.4ZM38 34.4C37.2 34.4 36.5 34.7 35.9 35.2C35.3 35.8 35 36.5 35 37.4C35 38.2 35.3 38.9 35.9 39.5C36.5 40.1 37.2 40.4 38 40.4C38.8 40.4 39.5001 40.1 40.1001 39.5C40.7001 38.9 41 38.2 41 37.4C41 36.6 40.7001 35.9 40.1001 35.2C39.5001 34.7 38.8 34.4 38 34.4Z" fill="#0145D1"/>
<path d="M37.7001 18C32.1001 18 27.3 19.9 23.4 23.5C19.4 27.2 17.5 31.7 17.5 37C17.5 42 19.3 46.3 22.9 49.8C23.6 51.6 22.8 53.2 20.5 54.5C18.8 55.5 18.4 56.3 19.3 56.9C20.2 57.4 22.4 57.3 25.9 56.5C29.3 55.7 32.2001 55.4 34.6001 55.7H34.7001C35.7001 55.8 36.7 55.9 37.8 55.9C43.4 55.9 48.1001 54.1 52.1001 50.4C56.0001 46.7 58 42.2 58 37C58 31.8 56.0001 27.3 52.1001 23.5C48.0001 19.9 43.3001 18 37.7001 18ZM35.9 35.3C36.5 34.7 37.2 34.5 38 34.5C38.8 34.5 39.5001 34.8 40.1001 35.3C40.7001 35.9 41 36.6 41 37.5C41 38.3 40.7001 39 40.1001 39.6C39.5001 40.2 38.8 40.5 38 40.5C37.2 40.5 36.5 40.2 35.9 39.6C35.3 39 35 38.3 35 37.5C35 36.6 35.3 35.9 35.9 35.3ZM26.2001 35.3C26.8001 34.7 27.5 34.5 28.4 34.5C29.2 34.5 29.9 34.8 30.5 35.3C31.1 35.9 31.4 36.6 31.4 37.5C31.4 38.3 31.1 39 30.5 39.6C29.9 40.2 29.2 40.5 28.4 40.5C27.6 40.5 26.8001 40.2 26.2001 39.6C25.6001 39 25.4 38.3 25.4 37.5C25.4 36.6 25.7001 35.9 26.2001 35.3ZM45.5 35.3C46.1 34.7 46.8001 34.5 47.7001 34.5C48.5001 34.5 49.2 34.8 49.8 35.3C50.4 35.9 50.7001 36.6 50.7001 37.5C50.7001 38.3 50.4 39 49.8 39.6C49.2 40.2 48.5001 40.5 47.7001 40.5C46.9001 40.5 46.1 40.2 45.5 39.6C44.9 39 44.7001 38.3 44.7001 37.5C44.6001 36.6 44.9 35.9 45.5 35.3Z" fill="white"/>
</svg>
