<svg width="322" height="82" viewBox="0 0 322 82" fill="none" xmlns="http://www.w3.org/2000/svg">
<rect width="322" height="82" rx="41" fill="#FAFAFF"/>
<rect width="322" height="82" rx="41" stroke="white"/>
<path d="M112.18 29.662C111.184 29.662 110.284 29.536 109.48 29.284C108.676 29.02 107.98 28.642 107.392 28.15L107.914 26.962C108.526 27.43 109.168 27.778 109.84 28.006C110.512 28.234 111.292 28.348 112.18 28.348C113.26 28.348 114.058 28.15 114.574 27.754C115.102 27.346 115.366 26.812 115.366 26.152C115.366 25.624 115.174 25.204 114.79 24.892C114.418 24.58 113.788 24.334 112.9 24.154L111.028 23.776C109.9 23.536 109.054 23.146 108.49 22.606C107.938 22.054 107.662 21.322 107.662 20.41C107.662 19.654 107.854 18.994 108.238 18.43C108.634 17.866 109.18 17.428 109.876 17.116C110.572 16.804 111.376 16.648 112.288 16.648C113.14 16.648 113.932 16.786 114.664 17.062C115.396 17.326 116.014 17.71 116.518 18.214L115.996 19.366C115.456 18.874 114.886 18.52 114.286 18.304C113.686 18.076 113.014 17.962 112.27 17.962C111.322 17.962 110.566 18.184 110.002 18.628C109.438 19.06 109.156 19.636 109.156 20.356C109.156 20.932 109.33 21.388 109.678 21.724C110.038 22.06 110.62 22.306 111.424 22.462L113.296 22.858C114.508 23.11 115.402 23.494 115.978 24.01C116.566 24.514 116.86 25.204 116.86 26.08C116.86 26.788 116.668 27.412 116.284 27.952C115.912 28.492 115.372 28.912 114.664 29.212C113.968 29.512 113.14 29.662 112.18 29.662ZM119.15 29.5V16.81H127.16V18.052H120.59V22.444H126.782V23.686H120.59V28.258H127.16V29.5H119.15ZM135.081 29.662C133.833 29.662 132.765 29.398 131.877 28.87C130.989 28.342 130.305 27.592 129.825 26.62C129.357 25.648 129.123 24.49 129.123 23.146C129.123 21.814 129.357 20.662 129.825 19.69C130.305 18.718 130.989 17.968 131.877 17.44C132.765 16.912 133.833 16.648 135.081 16.648C135.957 16.648 136.761 16.786 137.493 17.062C138.237 17.338 138.867 17.74 139.383 18.268L138.807 19.474C138.255 18.958 137.679 18.586 137.079 18.358C136.491 18.118 135.837 17.998 135.117 17.998C133.689 17.998 132.597 18.448 131.841 19.348C131.085 20.248 130.707 21.514 130.707 23.146C130.707 24.79 131.085 26.062 131.841 26.962C132.597 27.862 133.689 28.312 135.117 28.312C135.837 28.312 136.491 28.198 137.079 27.97C137.679 27.73 138.255 27.352 138.807 26.836L139.383 28.042C138.867 28.558 138.237 28.96 137.493 29.248C136.761 29.524 135.957 29.662 135.081 29.662ZM146.707 29.662C145.039 29.662 143.773 29.224 142.909 28.348C142.045 27.46 141.613 26.17 141.613 24.478V16.81H143.089V24.406C143.089 27.034 144.295 28.348 146.707 28.348C149.095 28.348 150.289 27.034 150.289 24.406V16.81H151.765V24.478C151.765 26.17 151.333 27.46 150.469 28.348C149.617 29.224 148.363 29.662 146.707 29.662ZM154.798 29.5V16.81H159.82C161.188 16.81 162.232 17.128 162.952 17.764C163.684 18.4 164.05 19.306 164.05 20.482C164.05 21.418 163.792 22.186 163.276 22.786C162.772 23.386 162.052 23.776 161.116 23.956C161.668 24.148 162.142 24.616 162.538 25.36L164.77 29.5H163.15L160.954 25.432C160.678 24.928 160.36 24.586 160 24.406C159.64 24.226 159.166 24.136 158.578 24.136H156.274V29.5H154.798ZM156.274 22.966H159.604C161.596 22.966 162.592 22.138 162.592 20.482C162.592 18.85 161.596 18.034 159.604 18.034H156.274V22.966ZM166.839 29.5V16.81H174.849V18.052H168.279V22.444H174.471V23.686H168.279V28.258H174.849V29.5H166.839ZM177.333 29.5V16.81H181.617C183.669 16.81 185.253 17.356 186.369 18.448C187.485 19.528 188.043 21.094 188.043 23.146C188.043 25.198 187.485 26.77 186.369 27.862C185.253 28.954 183.669 29.5 181.617 29.5H177.333ZM178.809 28.24H181.509C184.821 28.24 186.477 26.542 186.477 23.146C186.477 19.762 184.821 18.07 181.509 18.07H178.809V28.24ZM195.316 29.5V16.81H200.392C201.7 16.81 202.708 17.104 203.416 17.692C204.136 18.268 204.496 19.078 204.496 20.122C204.496 20.818 204.316 21.412 203.956 21.904C203.596 22.396 203.098 22.756 202.462 22.984C203.194 23.176 203.764 23.53 204.172 24.046C204.592 24.562 204.802 25.216 204.802 26.008C204.802 27.136 204.436 28 203.704 28.6C202.972 29.2 201.94 29.5 200.608 29.5H195.316ZM196.756 22.48H200.176C202.084 22.48 203.038 21.736 203.038 20.248C203.038 18.748 202.084 17.998 200.176 17.998H196.756V22.48ZM196.756 28.312H200.464C202.384 28.312 203.344 27.538 203.344 25.99C203.344 24.442 202.384 23.668 200.464 23.668H196.756V28.312ZM210.294 29.5V23.488L205.434 16.81H207.162L211.068 22.192L214.956 16.81H216.63L211.77 23.524V29.5H210.294Z" fill="#5E5E63"/>
<path fill-rule="evenodd" clip-rule="evenodd" d="M98.8987 52.0463H94.8387C94.8387 50.5686 94.6602 49.4983 94.3029 48.8352C93.9648 48.1532 93.3348 47.8122 92.4139 47.8122C91.9064 47.8122 91.4833 47.9543 91.1452 48.2385C90.8256 48.5037 90.5719 48.9489 90.3839 49.5741C90.1956 50.1803 90.0644 50.9854 89.9891 51.9895C89.9139 52.9746 89.8761 54.187 89.8761 55.6268C89.8761 57.1613 89.9233 58.4022 90.0171 59.3494C90.1302 60.2967 90.2898 61.0355 90.4966 61.566C90.722 62.0774 90.9947 62.4279 91.3142 62.6174C91.6527 62.7879 92.038 62.8731 92.4703 62.8731C92.8273 62.8731 93.1563 62.8163 93.4573 62.7026C93.7768 62.57 94.0491 62.3237 94.2749 61.9638C94.5003 61.5849 94.6788 61.0639 94.8104 60.4009C94.942 59.7189 95.0078 58.8285 95.0078 57.7297H99.0681C99.0681 58.8285 98.9834 59.8704 98.8144 60.8555C98.645 61.8406 98.3254 62.7026 97.8557 63.4415C97.4046 64.1803 96.756 64.7581 95.9101 65.1749C95.083 65.5917 94.0022 65.8 92.6677 65.8C91.1452 65.8 89.9328 65.5537 89.0305 65.0612C88.1282 64.5686 87.4327 63.8582 86.9438 62.9299C86.4741 62.0017 86.164 60.8934 86.0135 59.6052C85.8819 58.317 85.8161 56.8961 85.8161 55.3427C85.8161 53.8082 85.8819 52.3968 86.0135 51.1086C86.164 49.8014 86.4741 48.6837 86.9438 47.7554C87.4327 46.8271 88.1282 46.1072 89.0305 45.5957C89.9328 45.0653 91.1452 44.8 92.6677 44.8C94.1149 44.8 95.2521 45.0369 96.0795 45.5105C96.9251 45.9841 97.5547 46.5903 97.9684 47.3291C98.3821 48.049 98.6359 48.8352 98.7297 49.6877C98.8424 50.5213 98.8987 51.3075 98.8987 52.0463ZM41 65.4448V45.1552H45.0602V52.913H49.7971V45.1552H53.8572V65.4448H49.7971V56.4367H45.0602V65.4448H41ZM63.0988 48.6789L65.0443 57.8007H61.0969L63.0424 48.6789H63.0988ZM70.909 65.4448L65.5801 45.1552H60.5612L55.2322 65.4448H59.4616L60.3921 61.1539H65.7492L66.6797 65.4448H70.909ZM83.5341 45.1552H72.284V65.4448H83.8162V62.0916H76.344V56.6356H83.1113V53.2824H76.344V48.5084H83.5341V45.1552ZM101.068 45.1552V65.4448H105.128V56.4367H109.865V65.4448H113.925V45.1552H109.865V52.913H105.128V45.1552H101.068ZM120.736 65.4448H116.675V45.1552H120.736V65.4448Z" fill="#1D1D1D"/>
<path d="M154.242 60.9236C155.128 60.9236 155.91 60.7797 156.589 60.4918C157.269 60.2038 157.837 59.8052 158.295 59.2958C158.752 58.7864 159.099 58.1884 159.336 57.5018C159.572 56.8152 159.69 56.0807 159.69 55.2981V55.0323H157.83V55.2981C157.83 55.8149 157.759 56.3058 157.619 56.7709C157.479 57.236 157.265 57.6495 156.977 58.0112C156.689 58.373 156.32 58.6609 155.87 58.875C155.419 59.0891 154.877 59.1961 154.242 59.1961C153.046 59.1961 152.149 58.7864 151.551 57.9669C150.953 57.1474 150.654 55.9773 150.654 54.4565V51.2672C150.654 49.8497 150.953 48.7054 151.551 47.8343C152.149 46.9632 153.046 46.5276 154.242 46.5276C154.877 46.5276 155.416 46.6346 155.858 46.8487C156.301 47.0628 156.667 47.3507 156.955 47.7125C157.243 48.0742 157.457 48.4913 157.597 48.9638C157.737 49.4363 157.815 49.9236 157.83 50.4256V50.6914H159.69V50.4256C159.69 49.643 159.572 48.9085 159.336 48.2219C159.099 47.5353 158.752 46.9373 158.295 46.4279C157.837 45.9185 157.269 45.5199 156.589 45.2319C155.91 44.944 155.128 44.8 154.242 44.8C152.529 44.8 151.193 45.3537 150.233 46.4611C149.273 47.5685 148.793 49.1263 148.793 51.1343V54.5894C148.793 56.6565 149.273 58.229 150.233 59.3069C151.193 60.3847 152.529 60.9236 154.242 60.9236ZM167.708 60.9236C168.431 60.9236 169.129 60.7981 169.801 60.5471C170.472 60.2961 171.059 59.9307 171.561 59.4508C172.063 58.9709 172.466 58.3803 172.768 57.679C173.071 56.9776 173.222 56.1693 173.222 55.2538V54.988C173.222 54.0874 173.071 53.2863 172.768 52.585C172.466 51.8837 172.06 51.2894 171.55 50.8021C171.041 50.3148 170.454 49.9457 169.789 49.6947C169.125 49.4437 168.431 49.3182 167.708 49.3182C166.984 49.3182 166.29 49.4437 165.626 49.6947C164.961 49.9457 164.374 50.3148 163.865 50.8021C163.355 51.2894 162.949 51.8837 162.647 52.585C162.344 53.2863 162.193 54.0874 162.193 54.988V55.2538C162.193 56.1693 162.344 56.9776 162.647 57.679C162.949 58.3803 163.352 58.9709 163.854 59.4508C164.356 59.9307 164.939 60.2961 165.603 60.5471C166.268 60.7981 166.969 60.9236 167.708 60.9236ZM167.708 59.2847C167.176 59.2847 166.685 59.1924 166.235 59.0079C165.784 58.8233 165.389 58.5538 165.05 58.1995C164.71 57.8451 164.444 57.4206 164.252 56.926C164.061 56.4313 163.965 55.8739 163.965 55.2538V54.988C163.965 54.3974 164.061 53.8548 164.252 53.3602C164.444 52.8655 164.71 52.441 165.05 52.0867C165.389 51.7323 165.788 51.4555 166.246 51.2561C166.704 51.0568 167.191 50.9571 167.708 50.9571C168.224 50.9571 168.712 51.0568 169.169 51.2561C169.627 51.4555 170.026 51.7323 170.365 52.0867C170.705 52.441 170.971 52.8655 171.163 53.3602C171.355 53.8548 171.451 54.3974 171.451 54.988V55.2538C171.451 55.8739 171.355 56.4313 171.163 56.926C170.971 57.4206 170.705 57.8451 170.365 58.1995C170.026 58.5538 169.631 58.8233 169.18 59.0079C168.73 59.1924 168.239 59.2847 167.708 59.2847ZM181.063 60.9236C181.387 60.9236 181.727 60.883 182.081 60.8018C182.436 60.7206 182.772 60.5988 183.089 60.4364C183.407 60.274 183.702 60.0673 183.975 59.8163C184.248 59.5652 184.473 59.2699 184.651 58.9303H184.916V60.6136H186.644V45.1101H184.916V51.3558H184.651C184.296 50.6618 183.791 50.1487 183.133 49.8165C182.476 49.4843 181.771 49.3182 181.018 49.3182C180.31 49.3182 179.638 49.4437 179.003 49.6947C178.368 49.9457 177.814 50.3112 177.342 50.791C176.869 51.2709 176.493 51.8615 176.212 52.5629C175.932 53.2642 175.791 54.0578 175.791 54.9437V55.2981C175.791 56.1988 175.928 56.9998 176.201 57.7011C176.474 58.4025 176.851 58.9894 177.331 59.4619C177.811 59.9344 178.368 60.2961 179.003 60.5471C179.638 60.7981 180.324 60.9236 181.063 60.9236ZM181.24 59.2847C180.708 59.2847 180.221 59.1924 179.778 59.0079C179.335 58.8233 178.948 58.5575 178.615 58.2105C178.283 57.8636 178.025 57.4464 177.84 56.9592C177.656 56.4719 177.563 55.9182 177.563 55.2981V54.9437C177.563 54.3531 177.656 53.8142 177.84 53.327C178.025 52.8397 178.283 52.4189 178.615 52.0645C178.948 51.7102 179.339 51.437 179.789 51.2451C180.239 51.0531 180.723 50.9571 181.24 50.9571C181.742 50.9571 182.218 51.0568 182.668 51.2561C183.119 51.4555 183.51 51.7323 183.842 52.0867C184.174 52.441 184.437 52.8655 184.628 53.3602C184.82 53.8548 184.916 54.3974 184.916 54.988V55.2538C184.916 55.8592 184.82 56.4092 184.628 56.9038C184.437 57.3985 184.174 57.823 183.842 58.1773C183.51 58.5317 183.122 58.8048 182.679 58.9968C182.236 59.1887 181.757 59.2847 181.24 59.2847ZM194.861 60.9236C196.278 60.9236 197.404 60.6025 198.238 59.9602C199.073 59.3179 199.645 58.4874 199.955 57.4686L198.316 57.0256C198.212 57.3357 198.076 57.6273 197.906 57.9005C197.736 58.1736 197.515 58.4136 197.242 58.6203C196.968 58.827 196.64 58.9894 196.256 59.1075C195.872 59.2256 195.422 59.2847 194.905 59.2847C193.768 59.2847 192.882 58.9525 192.247 58.2881C191.612 57.6236 191.273 56.7451 191.228 55.6525H200.088V54.235C200.088 53.7478 199.988 53.2162 199.789 52.6404C199.589 52.0645 199.279 51.533 198.858 51.0457C198.438 50.5585 197.899 50.1487 197.242 49.8165C196.585 49.4843 195.806 49.3182 194.905 49.3182C194.137 49.3182 193.425 49.4548 192.768 49.7279C192.111 50.0011 191.539 50.3776 191.051 50.8575C190.564 51.3373 190.184 51.9095 189.911 52.5739C189.638 53.2384 189.501 53.9545 189.501 54.7223V55.2538C189.501 56.0954 189.634 56.8632 189.9 57.5572C190.165 58.2511 190.535 58.8491 191.007 59.3512C191.48 59.8532 192.044 60.2408 192.701 60.5139C193.358 60.7871 194.078 60.9236 194.861 60.9236ZM198.36 54.0578H191.273C191.332 53.6149 191.461 53.2051 191.66 52.8286C191.86 52.4521 192.118 52.1236 192.436 51.843C192.753 51.5625 193.122 51.3447 193.543 51.1897C193.964 51.0347 194.418 50.9571 194.905 50.9571C195.333 50.9571 195.75 51.031 196.156 51.1786C196.562 51.3263 196.924 51.533 197.242 51.7988C197.559 52.0645 197.817 52.3894 198.017 52.7733C198.216 53.1572 198.331 53.5853 198.36 54.0578Z" fill="#1D1D1D"/>
<path d="M224.971 60.6136V57.6901H227.363V55.9625H224.971V45.1101H221.361L215.935 55.1209V57.6901H223.111V60.6136H224.971ZM223.111 55.9625H217.53V55.6968L222.845 45.9074H223.111V55.9625ZM240.453 60.6136V58.886H231.815V58.2216C231.815 57.2471 232.147 56.5052 232.812 55.9958C233.476 55.4864 234.517 55.0766 235.935 54.7666C237.559 54.4122 238.74 53.8179 239.478 52.9837C240.216 52.1494 240.586 51.1417 240.586 49.9605V49.5618C240.586 48.9712 240.479 48.3917 240.264 47.8232C240.05 47.2548 239.722 46.7454 239.279 46.295C238.836 45.8447 238.282 45.4829 237.618 45.2098C236.953 44.9366 236.171 44.8 235.27 44.8C234.384 44.8 233.602 44.9477 232.922 45.243C232.243 45.5383 231.675 45.937 231.217 46.439C230.759 46.941 230.412 47.5168 230.176 48.1665C229.94 48.8162 229.822 49.4954 229.822 50.2041V51.3115H231.682V50.337C231.682 49.1853 231.996 48.2625 232.623 47.5685C233.251 46.8746 234.133 46.5276 235.27 46.5276C235.876 46.5276 236.396 46.6199 236.832 46.8044C237.267 46.989 237.625 47.2363 237.906 47.5464C238.186 47.8564 238.393 48.2034 238.526 48.5873C238.659 48.9712 238.725 49.3625 238.725 49.7612V49.894C238.725 50.6914 238.434 51.3632 237.85 51.9095C237.267 52.4558 236.318 52.8766 235.004 53.1719C234.222 53.3491 233.52 53.5632 232.9 53.8142C232.28 54.0652 231.752 54.379 231.317 54.7555C230.881 55.132 230.545 55.5823 230.309 56.1065C230.073 56.6307 229.955 57.2471 229.955 57.9558V60.6136H240.453ZM248.98 60.9236C249.733 60.9236 250.43 60.8018 251.073 60.5582C251.715 60.3146 252.272 59.9824 252.745 59.5616C253.217 59.1407 253.586 58.6424 253.852 58.0666C254.118 57.4907 254.251 56.8706 254.251 56.2062V55.8075C254.251 55.0988 254.122 54.4749 253.863 53.936C253.605 53.3971 253.265 52.9431 252.844 52.5739C252.424 52.2048 251.94 51.9243 251.394 51.7323C250.847 51.5404 250.279 51.4444 249.688 51.4444H248.802V51.1786L253.852 47.945V45.1101H243.487V46.8376H252.258V47.1034L247.208 50.337V52.9061H249.29C250.176 52.9061 250.914 53.1682 251.504 53.6924C252.095 54.2166 252.39 54.9437 252.39 55.8739V56.0068C252.39 56.4498 252.302 56.8669 252.125 57.2582C251.947 57.6495 251.704 57.9891 251.394 58.277C251.084 58.5649 250.718 58.7901 250.297 58.9525C249.877 59.1149 249.423 59.1961 248.935 59.1961C248.404 59.1961 247.909 59.1149 247.451 58.9525C246.994 58.7901 246.599 58.5575 246.267 58.2548C245.934 57.9521 245.676 57.583 245.491 57.1474C245.307 56.7119 245.215 56.2135 245.215 55.6525V54.5894H243.354V55.7854C243.354 56.4941 243.483 57.1622 243.742 57.7897C244 58.4173 244.373 58.9636 244.86 59.4287C245.347 59.8938 245.938 60.2592 246.632 60.525C247.326 60.7908 248.108 60.9236 248.98 60.9236ZM259.168 60.6136V54.8994C259.168 53.7035 259.467 52.7474 260.065 52.0313C260.663 51.3152 261.486 50.9571 262.534 50.9571C263.42 50.9571 264.121 51.2451 264.638 51.8209C265.155 52.3967 265.413 53.2605 265.413 54.4122V60.6136H267.141V54.0578C267.141 52.478 266.764 51.293 266.011 50.5031C265.258 49.7132 264.247 49.3182 262.977 49.3182C261.294 49.3182 260.113 50.0417 259.433 51.4887H259.168V49.6283H257.44V60.6136H259.168ZM279.189 60.6136V57.6901H281.581V55.9625H279.189V45.1101H275.579L270.153 55.1209V57.6901H277.329V60.6136H279.189ZM277.329 55.9625H271.748V55.6968L277.063 45.9074H277.329V55.9625Z" fill="#1D1D1D"/>
<path d="M281.677 63.0991H148.52V65.8001H281.677V63.0991Z" fill="#1D1D1D"/>
<path d="M134.366 62.962C133.094 62.962 132.098 62.668 131.378 62.08C130.67 61.492 130.316 60.718 130.316 59.758C130.316 58.942 130.538 58.24 130.982 57.652C131.426 57.064 132.092 56.476 132.98 55.888L133.25 55.708C132.71 55.12 132.332 54.598 132.116 54.142C131.9 53.686 131.792 53.224 131.792 52.756C131.792 51.916 132.074 51.238 132.638 50.722C133.202 50.206 133.958 49.948 134.906 49.948C135.734 49.948 136.412 50.182 136.94 50.65C137.48 51.106 137.75 51.73 137.75 52.522C137.75 53.146 137.57 53.722 137.21 54.25C136.85 54.766 136.19 55.324 135.23 55.924L138.182 59.254C138.434 58.75 138.638 58.162 138.794 57.49C138.95 56.818 139.04 56.11 139.064 55.366H140.324C140.3 56.302 140.174 57.184 139.946 58.012C139.73 58.828 139.442 59.548 139.082 60.172L141.512 62.8H139.73L138.308 61.198C137.804 61.762 137.216 62.2 136.544 62.512C135.872 62.812 135.146 62.962 134.366 62.962ZM134.906 51.082C134.39 51.082 133.97 51.232 133.646 51.532C133.322 51.832 133.16 52.228 133.16 52.72C133.16 52.972 133.196 53.206 133.268 53.422C133.34 53.626 133.466 53.86 133.646 54.124C133.838 54.376 134.096 54.688 134.42 55.06C135.176 54.58 135.704 54.154 136.004 53.782C136.316 53.41 136.472 53.014 136.472 52.594C136.472 52.126 136.328 51.76 136.04 51.496C135.752 51.22 135.374 51.082 134.906 51.082ZM134.438 61.756C135.674 61.756 136.682 61.276 137.462 60.316L134.06 56.608L133.844 56.752C133.076 57.256 132.536 57.718 132.224 58.138C131.912 58.558 131.756 59.062 131.756 59.65C131.756 60.31 131.984 60.826 132.44 61.198C132.896 61.57 133.562 61.756 134.438 61.756Z" fill="#5E5E63"/>
</svg>
