<svg width="360" height="75" viewBox="0 0 360 75" fill="none" xmlns="http://www.w3.org/2000/svg">
<path d="M133.573 27.1182H125.875L119.566 53.2179H127.241L133.573 27.1182ZM127.014 20.5592C127.014 21.5157 127.401 22.328 128.175 22.996C128.934 23.6641 129.853 23.9981 130.931 23.9981C132.237 23.9981 133.383 23.5578 134.37 22.6772C135.372 21.7814 135.873 20.7565 135.873 19.6026C135.873 18.6613 135.493 17.8566 134.734 17.1885C133.96 16.5357 133.034 16.2092 131.956 16.2092C130.665 16.2092 129.519 16.6419 128.517 17.5074C127.515 18.3728 127.014 19.3901 127.014 20.5592ZM90.3922 18.1451L88.798 24.5675H102.121L95.1065 53.2179H103.26L110.274 24.5675H123.484L125.078 18.1451H90.3922ZM202.671 27.1182H194.973L188.664 53.2179H196.339L202.671 27.1182ZM190.259 26.7994C189.591 26.6779 188.877 26.6172 188.118 26.6172C186.615 26.6172 185.187 26.8753 183.836 27.3915C182.5 27.9078 181.278 28.6669 180.169 29.669L180.807 27.1182H173.109L166.755 53.2179H174.476L178.689 35.932C179.646 34.7933 180.777 33.9278 182.083 33.3357C183.373 32.7284 184.724 32.4247 186.136 32.4247C186.865 32.4247 187.662 32.5158 188.528 32.698C189.393 32.8954 190.016 33.1079 190.395 33.3357L191.83 27.3004C191.435 27.0727 190.911 26.9057 190.259 26.7994ZM196.112 20.5592C196.112 21.5157 196.499 22.328 197.273 22.996C198.032 23.6641 198.951 23.9981 200.029 23.9981C201.335 23.9981 202.481 23.5578 203.468 22.6772C204.47 21.7814 204.971 20.7565 204.971 19.6026C204.971 18.6613 204.591 17.8566 203.832 17.1885C203.058 16.5357 202.132 16.2092 201.054 16.2092C199.763 16.2092 198.617 16.6419 197.615 17.5074C196.613 18.3728 196.112 19.3901 196.112 20.5592ZM168.008 27.1182H160.31L159.741 29.4185C158.587 28.5834 157.243 27.9305 155.71 27.4599C154.191 27.0044 152.544 26.7766 150.768 26.7766C148.475 26.7766 146.326 27.1562 144.322 27.9153C142.303 28.6897 140.557 29.7373 139.084 31.0582C137.581 32.3792 136.404 33.9278 135.554 35.7042C134.689 37.4958 134.256 39.3937 134.256 41.3979C134.256 43.0984 134.582 44.685 135.235 46.1578C135.918 47.6153 136.852 48.8831 138.037 49.9611C139.221 51.0239 140.618 51.859 142.227 52.4663C143.836 53.0584 145.583 53.3545 147.465 53.3545C148.649 53.3545 149.826 53.2255 150.995 52.9673C152.149 52.694 153.242 52.3145 154.275 51.8286L153.819 53.7872C153.44 55.2903 152.696 56.4215 151.587 57.1806C150.479 57.955 148.984 58.3421 147.101 58.3421C145.461 58.3421 143.768 58.0764 142.022 57.545C140.291 57.0288 138.598 56.3076 136.943 55.3814L133.391 60.4374C135.258 61.5761 137.437 62.4643 139.927 63.102C142.417 63.7549 144.884 64.0813 147.329 64.0813C151.124 64.0813 154.237 63.2538 156.666 61.5989C159.095 59.9591 160.674 57.5982 161.403 54.516L168.008 27.1182ZM158.306 35.3398L155.801 45.7023C154.89 46.34 153.918 46.8258 152.886 47.1598C151.838 47.4939 150.714 47.6609 149.515 47.6609C147.313 47.6609 145.484 47.008 144.026 45.7023C142.569 44.3965 141.84 42.7568 141.84 40.783C141.84 38.5511 142.736 36.638 144.527 35.0438C146.319 33.4344 148.505 32.6297 151.086 32.6297C152.529 32.6297 153.888 32.8726 155.163 33.3585C156.454 33.8443 157.501 34.5048 158.306 35.3398ZM354.554 29.1679C352.58 28.0899 350.295 27.5509 347.699 27.5509C343.934 27.5509 340.654 28.5378 337.86 30.5116C335.978 31.8174 334.528 33.4647 333.51 35.4537C332.463 37.4427 331.939 39.5683 331.939 41.8306C331.939 45.2923 333.23 48.1619 335.811 50.4394C338.361 52.7016 341.595 53.8328 345.513 53.8328C350.31 53.8328 354.212 52.2082 357.219 48.959C357.553 48.625 357.606 48.3593 357.378 48.1619L357.287 48.048C357.014 47.881 356.68 47.9949 356.285 48.3897C353.643 51.3807 350.052 52.8762 345.513 52.8762C341.96 52.8762 339.014 51.8134 336.676 49.6878C334.323 47.5774 333.146 44.9583 333.146 41.8306V41.079H358.426C358.699 41.079 358.912 41.0183 359.063 40.8968C359.2 40.7602 359.306 40.5021 359.382 40.1225C359.899 37.7691 359.716 35.6283 358.836 33.7001C357.94 31.7566 356.513 30.2459 354.554 29.1679ZM356.08 31.6048C358.342 33.8671 359.056 36.7063 358.221 40.1225H333.214C333.639 36.5849 335.378 33.6697 338.43 31.3771C341.026 29.464 344.116 28.5075 347.699 28.5075C351.267 28.5075 354.061 29.5399 356.08 31.6048ZM219.456 32.5841C221.004 33.1155 222.545 33.8747 224.079 34.8616L228.36 30.7166C226.599 29.4261 224.61 28.4392 222.393 27.7559C220.192 27.0727 217.884 26.7311 215.47 26.7311C211.826 26.7311 208.926 27.4978 206.77 29.0313C204.644 30.5648 203.582 32.6297 203.582 35.226C203.582 37.0328 204.227 38.5435 205.518 39.7581C206.823 40.9879 208.698 41.8382 211.143 42.3089L216.677 43.3565C217.74 43.5842 218.552 43.8879 219.114 44.2675C219.66 44.6622 219.934 45.1405 219.934 45.7023C219.934 46.5373 219.448 47.2206 218.476 47.752C217.505 48.2986 216.229 48.5719 214.65 48.5719C212.965 48.5719 211.31 48.2682 209.685 47.6609C208.061 47.0536 206.444 46.1502 204.834 44.9507L200.416 49.3006C202.056 50.6671 204.136 51.7527 206.656 52.5574C209.192 53.3773 211.841 53.7872 214.605 53.7872C216.396 53.7872 218.066 53.5595 219.615 53.104C221.164 52.6485 222.507 52.026 223.646 51.2365C224.77 50.447 225.658 49.5056 226.311 48.4124C226.964 47.3496 227.29 46.1805 227.29 44.9052C227.29 43.1743 226.622 41.6939 225.286 40.4641C223.935 39.2495 221.999 38.4068 219.478 37.9361L214.012 36.8657C212.722 36.638 211.803 36.3343 211.257 35.9548C210.725 35.5752 210.46 35.0666 210.46 34.4289C210.46 33.6242 210.862 32.9865 211.667 32.5158C212.487 32.0603 213.58 31.8326 214.946 31.8326C216.404 31.8326 217.907 32.0831 219.456 32.5841ZM268.011 28.7352C268.163 28.4164 268.049 28.181 267.669 28.0292C266.895 27.7104 265.946 27.5509 264.822 27.5509C262.241 27.5509 259.994 28.2721 258.081 29.7145C257.034 30.4737 256.1 31.4606 255.28 32.6752L256.123 28.6441C256.183 28.3253 256.054 28.1659 255.735 28.1659H255.622C255.242 28.1659 255.029 28.3253 254.984 28.6441L249.996 52.7396C249.935 53.0584 250.072 53.2179 250.406 53.2179H250.52C250.869 53.2179 251.074 53.0584 251.135 52.7396L254.301 37.2985C254.483 36.2812 254.748 35.4082 255.098 34.6794C255.963 32.8271 257.239 31.3391 258.924 30.2156C260.609 29.0768 262.492 28.5075 264.572 28.5075C265.407 28.5075 266.257 28.6441 267.123 28.9174C267.548 29.0844 267.829 29.0541 267.965 28.8263L268.011 28.7352ZM289.624 30.17C287.893 28.424 285.335 27.5509 281.949 27.5509C278.077 27.5509 274.335 28.9933 270.721 31.8781C270.341 32.1362 270.288 32.364 270.562 32.5613L270.607 32.6297C270.88 32.7967 271.154 32.7587 271.427 32.5158C273.188 31.1797 274.912 30.1776 276.597 29.5096C278.252 28.8415 280.051 28.5075 281.994 28.5075C284.97 28.5075 287.202 29.259 288.69 30.7622C290.254 32.326 290.755 34.4896 290.193 37.2529L289.464 40.8285C288.144 40.0542 286.565 39.4393 284.727 38.9838C282.86 38.5283 280.954 38.3005 279.011 38.3005C275.337 38.3005 272.315 39.0901 269.947 40.6691C267.578 42.2481 266.394 44.2751 266.394 46.7499C266.394 48.8755 267.305 50.5912 269.127 51.8969C270.964 53.1875 273.34 53.8328 276.255 53.8328C278.548 53.8328 280.772 53.3393 282.928 52.3524C285.054 51.3807 286.732 50.0294 287.961 48.2986L287.05 52.7396C286.99 53.0584 287.119 53.2179 287.438 53.2179H287.551C287.946 53.2179 288.159 53.0584 288.189 52.7396L291.332 37.344C291.985 34.3529 291.415 31.9616 289.624 30.17ZM289.237 41.8306L288.531 45.2012C288.045 46.7803 287.149 48.1695 285.843 49.369C284.507 50.5684 283.019 51.449 281.38 52.0108C279.74 52.5878 278.07 52.8762 276.369 52.8762C273.788 52.8762 271.685 52.3297 270.061 51.2365C268.421 50.1433 267.601 48.6705 267.601 46.8182C267.601 44.4952 268.671 42.6581 270.812 41.3068C272.938 39.9403 275.633 39.2571 278.897 39.2571C280.78 39.2571 282.655 39.4924 284.522 39.9631C286.39 40.4338 287.961 41.0563 289.237 41.8306ZM241.911 19.0333L241.524 19.1471C241.281 19.2079 241.129 19.3445 241.069 19.5571L239.269 28.1659H234.623C234.274 28.1659 234.046 28.2797 233.94 28.5075L233.895 28.6441C233.834 28.7808 233.849 28.8871 233.94 28.963C234.046 29.0389 234.183 29.0768 234.35 29.0768H239.11L235.375 46.9549C234.904 49.1716 235.14 50.8797 236.081 52.0791C237.007 53.2482 238.617 53.8328 240.909 53.8328C242.792 53.8328 244.47 53.3925 245.942 52.5119C246.322 52.2689 246.451 52.0564 246.329 51.8742L246.238 51.7147C246.087 51.5477 245.828 51.5477 245.464 51.7147C244.082 52.4891 242.632 52.8762 241.114 52.8762C239.11 52.8762 237.751 52.398 237.037 51.4414C236.324 50.4545 236.172 48.9287 236.582 46.8638L240.249 29.0768H249.085C249.48 29.0768 249.715 28.9782 249.791 28.7808L249.837 28.5986C249.898 28.4771 249.882 28.3708 249.791 28.2797C249.67 28.2038 249.541 28.1659 249.404 28.1659H240.431L242.276 19.3521C242.291 19.2458 242.26 19.1547 242.185 19.0788C242.093 19.0181 242.002 19.0029 241.911 19.0333ZM329.457 17.644L329.161 17.7351C328.918 17.811 328.766 17.9477 328.705 18.1451L324.811 36.9341C324.249 34.1404 322.875 31.8781 320.688 30.1472C318.487 28.4164 315.807 27.5509 312.649 27.5509C309.658 27.5509 306.955 28.219 304.541 29.5551C302.112 30.876 300.244 32.6373 298.939 34.8388C297.603 37.0252 296.935 39.4089 296.935 41.99C296.935 45.4214 298.126 48.253 300.51 50.4849C302.863 52.7168 305.893 53.8328 309.597 53.8328C312.543 53.8328 315.124 53.2634 317.341 52.1247C319.572 50.9556 321.349 49.331 322.67 47.2509L321.531 52.7396C321.47 53.0584 321.599 53.2179 321.918 53.2179H322.032C322.412 53.2179 322.624 53.0584 322.67 52.7396L329.844 17.9401C329.889 17.8034 329.882 17.7123 329.821 17.6668C329.745 17.6061 329.624 17.5985 329.457 17.644ZM323.945 39.4848C323.945 41.9748 323.345 44.2371 322.146 46.2716C320.931 48.291 319.223 49.9004 317.022 51.0998C314.805 52.2841 312.33 52.8762 309.597 52.8762C306.211 52.8762 303.463 51.8438 301.353 49.7789C299.212 47.6988 298.142 45.0722 298.142 41.8989C298.142 39.5152 298.764 37.306 300.009 35.2715C301.239 33.2218 302.962 31.5896 305.179 30.375C307.411 29.13 309.87 28.5075 312.558 28.5075C315.944 28.5075 318.692 29.5399 320.802 31.6048C322.898 33.6697 323.945 36.2964 323.945 39.4848Z" fill="white"/>
<path d="M63.5638 10.909C56.2911 3.63633 47.5153 0 37.2364 0C26.9575 0 18.1741 3.63633 10.8862 10.909C3.62874 18.1969 0 26.9727 0 37.2364C0 47.5153 3.62874 56.2987 10.8862 63.5865C18.1741 70.8288 26.9575 74.45 37.2364 74.45C47.5153 74.45 56.2911 70.8288 63.5638 63.5865C70.8364 56.2987 74.4728 47.5153 74.4728 37.2364C74.4728 26.9727 70.8364 18.1969 63.5638 10.909ZM35.4372 27.3522L35.3916 27.4433L35.4144 27.3522H35.4372Z" fill="url(#paint0_linear_147_203)"/>
<path d="M30.7406 25.5965L30.8939 25.4432C30.8826 25.4318 30.8712 25.4261 30.8598 25.4261L30.7406 25.5965ZM43.3285 18.5445C43.9531 18.6808 44.4925 18.4139 44.9467 17.7439C39.6095 14.8936 33.4149 15.0413 26.363 18.1868C24.9662 18.7092 23.8931 18.9761 23.1436 18.9874C22.6326 18.9988 22.2578 18.8966 22.0194 18.6808C22.0421 18.7489 22.0648 18.8171 22.0875 18.8852L29.7697 32.1885L23.2798 19.5325C23.8931 19.5552 24.7277 19.3678 25.7838 18.9704C31.7683 16.2109 37.6165 16.069 43.3285 18.5445ZM49.0007 21.798C49.0007 21.5368 48.995 21.4005 48.9837 21.3891C48.9723 21.3551 48.9836 21.3153 49.0177 21.2699C49.0518 21.2586 49.0802 21.2642 49.1029 21.287C49.1142 21.2983 49.1597 21.5652 49.2392 22.0875C49.296 22.5985 49.6139 23.1323 50.193 23.6887C50.9084 24.4382 51.5501 25.2217 52.1179 26.0393C54.3777 29.1395 55.6495 32.6654 55.9334 36.6172C55.9447 36.9693 55.9561 37.327 55.9675 37.6904C55.9902 37.7926 56.0015 37.8834 56.0015 37.9629C55.9901 38.0992 55.9901 38.2297 56.0015 38.3547C55.9901 38.5023 55.9845 38.6499 55.9845 38.7975C55.9845 38.8884 55.9901 38.9622 56.0015 39.019C56.0696 40.1886 56.2627 41.0346 56.5806 41.557L42.2042 40.535L57.0916 42.051C57.2847 42.1645 57.5118 42.1929 57.773 42.1361C57.7162 42.1021 57.6481 42.0623 57.5686 42.0169C56.9441 41.574 56.5807 40.2227 56.4785 37.9629C56.4785 37.5541 56.4671 37.1453 56.4444 36.7365C56.4444 36.5775 56.4444 36.4185 56.4444 36.2595C56.24 31.9216 55.1896 28.231 53.2932 25.1877C52.1235 23.3253 50.6303 21.7071 48.8134 20.3331C48.5749 20.14 48.3194 19.947 48.0468 19.7539C47.8311 19.6858 47.6494 19.7028 47.5017 19.805C47.2746 19.9527 47.0816 20.2422 46.9226 20.6737C46.6501 21.3551 46.3719 21.9513 46.088 22.4623C45.9858 22.6553 45.7983 22.9562 45.5258 23.365C45.2646 23.7398 45.0716 24.0351 44.9467 24.2508C44.8104 24.4779 44.7025 24.705 44.6231 24.9322C44.5436 25.1706 44.4641 25.3921 44.3846 25.5965C44.3051 25.8009 44.0666 26.3176 43.6692 27.1465C43.2717 27.9982 42.8118 28.8612 42.2894 29.7356C41.7784 30.5987 41.2901 31.3198 40.8245 31.8989C40.3476 32.4667 39.6038 33.4376 38.5932 34.8117C36.3447 36.6627 34.8457 38.5364 34.0962 40.4328L32.6654 44.078L33.2276 40.8927C32.9437 40.7791 32.7619 40.6258 32.6825 40.4328C32.603 40.2397 32.654 40.0069 32.8357 39.7344C33.0288 39.4391 33.1367 39.2347 33.1594 39.1212C33.1821 38.8827 33.0969 38.5875 32.9039 38.2354C32.6995 37.9061 32.4894 37.6109 32.2737 37.3497C32.1033 37.1566 32.0352 37.009 32.0692 36.9068C32.0692 36.8387 32.0919 36.7024 32.1373 36.498C32.1601 36.2936 32.1317 36.163 32.0522 36.1062C31.9954 36.0494 31.6547 35.97 31.0302 35.8677C30.928 35.845 30.8258 35.828 30.7236 35.8167C30.5873 35.7485 30.4284 35.6634 30.2467 35.5612H30.2126C30.2239 35.5615 30.2296 35.5672 30.2296 35.5782C30.1956 35.5668 30.1388 35.5271 30.0593 35.4589C29.9571 35.4022 29.7868 35.2659 29.5483 35.0501C29.3098 34.823 28.9634 34.6357 28.5092 34.488C28.4979 34.488 28.4752 34.4824 28.4411 34.471C28.3843 34.4596 28.3332 34.454 28.2878 34.454C27.8676 34.3858 27.4645 34.3972 27.0784 34.488C26.9876 34.4312 26.8967 34.3972 26.8058 34.3858C26.715 34.3745 26.6128 34.3801 26.4993 34.4029C26.3176 34.4369 26.1416 34.5221 25.9712 34.6584C25.8236 34.7379 25.5226 34.9934 25.0684 35.4249C24.6142 35.8678 24.3643 36.4412 24.3189 37.1453C24.2962 37.6676 24.3076 38.0651 24.353 38.3376C24.2849 38.4966 24.2565 38.6386 24.2678 38.7635C24.2792 38.8657 24.3189 39.0133 24.387 39.2063C24.4211 39.354 24.4666 39.4959 24.5234 39.6322C24.6142 39.8479 24.7221 40.0864 24.847 40.3476C24.9265 40.4725 24.9889 40.5804 25.0344 40.6712C24.9549 40.6712 25.1252 40.904 25.5454 41.3696C25.9655 41.8352 26.6696 42.1021 27.6575 42.1702C28.6682 42.2497 29.4517 42.5222 30.0081 42.9878C30.3942 43.3171 30.4056 43.7089 30.0422 44.1631C29.8833 44.3675 29.6561 44.5833 29.3609 44.8104C29.1565 44.9467 28.8499 45.1113 28.4411 45.3044C28.0436 45.4634 27.6462 45.6734 27.2487 45.9346C26.8626 46.1958 26.3686 46.599 25.7668 47.144C25.1536 47.7005 24.4268 48.6543 23.5865 50.0057L19.0385 55.6438L20.8441 52.8673C20.9463 52.697 21.0939 52.4812 21.287 52.2201C21.9456 51.2548 22.292 50.4713 22.326 49.8694C22.3715 49.2789 22.5134 48.7452 22.7519 48.2683C22.9676 47.78 23.4446 47.2349 24.1827 46.633C24.353 46.4854 24.6198 46.2753 24.9832 46.0028C25.2671 45.7529 25.4942 45.5202 25.6646 45.3044C25.8235 45.0773 26.011 44.7366 26.2267 44.2824C26.2381 44.2597 26.2494 44.2426 26.2607 44.2313C26.3516 44.0042 26.4198 43.8281 26.4652 43.7032C26.522 43.5102 26.522 43.3342 26.4652 43.1752C26.4538 43.0843 26.4084 43.0219 26.3289 42.9878V42.9708C26.1472 42.8005 25.7725 42.9765 25.2047 43.4988C24.9776 43.6805 24.7221 43.902 24.4382 44.1631C23.9726 44.5492 23.5978 44.8785 23.3139 45.1511C22.2692 46.1504 21.5141 46.9283 21.0485 47.4847C20.5716 48.0184 20.0719 48.7793 19.5495 49.7672C19.0158 50.7779 18.4878 51.7658 17.9654 52.7311C17.4317 53.6849 17.0512 54.6786 16.8241 55.7119C16.597 56.7226 16.4721 57.3018 16.4494 57.4494C16.4381 57.597 16.4437 57.79 16.4664 58.0285C16.5005 58.2443 16.5629 58.4203 16.6538 58.5566C16.8014 58.7383 17.1024 58.8177 17.5566 58.795C17.9881 58.7723 18.8114 58.5622 20.0265 58.1648C21.2416 57.7673 23.1436 56.5409 25.7328 54.4855C28.3219 52.4188 30.1501 52.186 31.2175 53.7872C32.7846 56.1037 33.4319 58.1364 33.1594 59.8852C33.1253 60.0669 33.0856 60.277 33.0402 60.5154C32.8131 61.6397 33.5796 62.2245 35.3397 62.2699C37.0772 62.3153 39.0871 62.2188 41.3696 61.9803C43.6294 61.7305 45.6678 61.1003 47.4847 60.0896C44.7139 59.5332 42.4484 58.4998 40.6883 56.9895C41.733 57.7503 43.2319 58.2897 45.1851 58.6077C48.1036 59.0846 48.8815 58.778 47.5188 57.6878C43.2604 55.0987 40.8927 51.181 40.4157 45.9346C40.0637 41.9715 40.9097 38.2865 42.9537 34.8798C43.8395 33.4263 44.4924 32.1998 44.9126 31.2005C45.0488 30.8485 45.2704 30.2183 45.577 29.3098C45.8722 28.4354 46.139 27.7086 46.3775 27.1295C46.7068 26.3687 47.0589 25.693 47.4336 25.1025C47.5472 24.9094 47.7175 24.6596 47.9446 24.353C48.0014 24.2849 48.0525 24.2167 48.0979 24.1486C48.166 24.0691 48.2342 23.9556 48.3023 23.8079C48.3591 23.7398 48.4045 23.6717 48.4386 23.6035C48.5748 23.3991 48.6998 23.1096 48.8134 22.7348C48.9496 22.3601 49.012 22.0478 49.0007 21.798ZM46.3775 14.712L47.4847 14.6949L34.8627 35.7826L42.4427 25.4772C42.4654 25.4659 42.4882 25.4545 42.5109 25.4432C42.545 25.375 42.579 25.3183 42.613 25.2728C42.6357 25.2274 42.6528 25.199 42.6642 25.1877C42.6642 25.1763 44.1972 22.8086 47.2633 18.0846L48.677 15.9043C48.7679 15.7453 48.8587 15.5864 48.9496 15.4274L49.648 16.2961C49.6593 16.262 49.6763 16.1655 49.6991 16.0065L49.8694 12.174L46.3775 14.712Z" fill="white"/>
<defs>
<linearGradient id="paint0_linear_147_203" x1="9.11551" y1="77.1032" x2="71.142" y2="15.2703" gradientUnits="userSpaceOnUse">
<stop offset="0.176471" stop-color="#920BBC"/>
<stop offset="0.839216" stop-color="#0049DD"/>
</linearGradient>
</defs>
</svg>
