<svg width="30" height="30" viewBox="0 0 30 30" fill="none" xmlns="http://www.w3.org/2000/svg">
<path d="M20.5032 0H8.50143C3.80639 0 0 3.80577 0 8.50143V15.5027C0 20.1977 3.94463 24.0676 8.63967 24.0676V28.6627C8.63967 28.9731 8.87664 29.1286 9.09634 28.9096L10.035 27.9709C12.575 25.4309 16.0204 24.0676 19.6127 24.0676H20.5032C25.1982 24.0676 29.0046 20.1977 29.0046 15.5027V8.50143C29.0046 3.80577 25.1982 0 20.5032 0Z" fill="#0145D1"/>
<path d="M7.40543 14.1937C8.42791 14.1937 9.25679 13.3649 9.25679 12.3424C9.25679 11.3199 8.42791 10.491 7.40543 10.491C6.38296 10.491 5.55408 11.3199 5.55408 12.3424C5.55408 13.3649 6.38296 14.1937 7.40543 14.1937Z" fill="white"/>
<path d="M14.8108 14.1937C15.8333 14.1937 16.6622 13.3649 16.6622 12.3424C16.6622 11.3199 15.8333 10.491 14.8108 10.491C13.7884 10.491 12.9595 11.3199 12.9595 12.3424C12.9595 13.3649 13.7884 14.1937 14.8108 14.1937Z" fill="white"/>
<path d="M22.2163 14.1937C23.2388 14.1937 24.0677 13.3649 24.0677 12.3424C24.0677 11.3199 23.2388 10.491 22.2163 10.491C21.1939 10.491 20.365 11.3199 20.365 12.3424C20.365 13.3649 21.1939 14.1937 22.2163 14.1937Z" fill="white"/>
</svg>
