<svg width="25" height="20" viewBox="0 0 25 20" fill="none" xmlns="http://www.w3.org/2000/svg">
<path d="M23.643 2.28575C23.2629 2.45431 22.8722 2.59657 22.473 2.71206C22.9457 2.17752 23.306 1.54855 23.526 0.860269C23.5753 0.705992 23.5242 0.537122 23.3974 0.436221C23.2708 0.335243 23.0948 0.323147 22.9553 0.405787C22.1075 0.908652 21.1927 1.27004 20.2336 1.48136C19.2674 0.537278 17.9552 0 16.5986 0C13.7351 0 11.4054 2.32961 11.4054 5.19306C11.4054 5.41859 11.4197 5.64286 11.4479 5.86402C7.89453 5.55203 4.59103 3.80551 2.32253 1.02282C2.24168 0.923634 2.11713 0.87018 1.98962 0.880403C1.86203 0.890391 1.7474 0.96234 1.68294 1.07292C1.22284 1.86241 0.979603 2.76536 0.979603 3.68408C0.979603 4.93539 1.42636 6.12263 2.21554 7.05032C1.97558 6.96721 1.74272 6.86335 1.52047 6.73997C1.40115 6.67356 1.25554 6.67458 1.137 6.74255C1.01839 6.81052 0.944018 6.93553 0.940897 7.07217C0.940351 7.09519 0.940351 7.11821 0.940351 7.14155C0.940351 9.00934 1.94561 10.6909 3.48253 11.6075C3.35049 11.5943 3.21853 11.5752 3.08743 11.5501C2.95228 11.5243 2.81329 11.5717 2.72215 11.6747C2.63085 11.7777 2.60065 11.9213 2.64271 12.0524C3.21159 13.8285 4.67625 15.1349 6.44689 15.5332C4.97833 16.453 3.29891 16.9348 1.53592 16.9348C1.16806 16.9348 0.798091 16.9132 0.436004 16.8704C0.256131 16.849 0.0841394 16.9552 0.0228811 17.1263C-0.0383772 17.2974 0.0265488 17.4882 0.179577 17.5863C2.44442 19.0385 5.06323 19.806 7.75274 19.806C13.04 19.806 16.3476 17.3128 18.1912 15.2212C20.4901 12.6131 21.8086 9.16104 21.8086 5.75016C21.8086 5.60767 21.8064 5.46377 21.802 5.32034C22.709 4.63698 23.49 3.80995 24.1254 2.8594C24.2219 2.71503 24.2115 2.52423 24.0996 2.39134C23.988 2.25836 23.8019 2.21536 23.643 2.28575Z" fill="#5E5E63"/>
</svg>
