<svg width="24" height="19" viewBox="0 0 24 19" fill="none" xmlns="http://www.w3.org/2000/svg">
<path d="M20.3175 1.51636C18.7615 0.802202 17.1195 0.292951 15.4325 0.00136465C15.4171 -0.0016324 15.4011 0.000335898 15.3869 0.00698584C15.3728 0.0136358 15.361 0.0246236 15.3535 0.0383646C15.1435 0.413365 14.9095 0.902365 14.7455 1.28836C12.9269 1.01215 11.0771 1.01215 9.25848 1.28836C9.07596 0.860666 8.86998 0.443365 8.64148 0.0383646C8.6336 0.0249313 8.62183 0.0142039 8.60773 0.0075981C8.59362 0.000992325 8.57785 -0.00118114 8.56248 0.00136465C6.87533 0.292345 5.23321 0.80162 3.67748 1.51636C3.66431 1.52189 3.65314 1.53131 3.64548 1.54336C0.533481 6.19236 -0.319519 10.7264 0.0994806 15.2034C0.100498 15.2145 0.103773 15.2253 0.109103 15.2351C0.114433 15.2449 0.121708 15.2535 0.130481 15.2604C1.94208 16.6026 3.96859 17.6272 6.12348 18.2904C6.13867 18.2948 6.15484 18.2944 6.16984 18.2894C6.18484 18.2844 6.19797 18.275 6.20748 18.2624C6.67075 17.6329 7.08083 16.9659 7.43348 16.2684C7.4384 16.2588 7.44123 16.2483 7.44181 16.2376C7.44238 16.2269 7.44067 16.2162 7.4368 16.2062C7.43292 16.1961 7.42697 16.1871 7.41933 16.1795C7.41169 16.172 7.40254 16.1661 7.39248 16.1624C6.7459 15.9149 6.11994 15.6167 5.52048 15.2704C5.50949 15.264 5.50024 15.255 5.49356 15.2442C5.48688 15.2335 5.48297 15.2212 5.48217 15.2085C5.48138 15.1958 5.48373 15.1832 5.48902 15.1716C5.49431 15.1601 5.50237 15.15 5.51248 15.1424C5.63872 15.0479 5.76275 14.9506 5.88448 14.8504C5.89513 14.8417 5.90797 14.8362 5.92156 14.8345C5.93516 14.8327 5.94898 14.8347 5.96148 14.8404C9.88948 16.6334 14.1415 16.6334 18.0235 14.8404C18.0361 14.8345 18.0501 14.8324 18.0639 14.8341C18.0777 14.8359 18.0907 14.8415 18.1015 14.8504C18.2215 14.9484 18.3475 15.0484 18.4745 15.1424C18.4845 15.1499 18.4925 15.1598 18.4978 15.1711C18.5031 15.1825 18.5056 15.1949 18.505 15.2074C18.5044 15.22 18.5008 15.2321 18.4944 15.2429C18.488 15.2537 18.4791 15.2628 18.4685 15.2694C17.8704 15.6189 17.2438 15.9173 16.5955 16.1614C16.5854 16.1652 16.5762 16.1712 16.5686 16.1788C16.5609 16.1865 16.555 16.1956 16.5511 16.2057C16.5472 16.2158 16.5455 16.2266 16.5461 16.2374C16.5467 16.2482 16.5496 16.2587 16.5545 16.2684C16.9145 16.9664 17.3265 17.6304 17.7795 18.2614C17.7888 18.2742 17.8019 18.2838 17.817 18.2889C17.832 18.2939 17.8483 18.2941 17.8635 18.2894C20.022 17.6282 22.0518 16.6035 23.8655 15.2594C23.8743 15.2531 23.8817 15.2451 23.8872 15.2358C23.8927 15.2265 23.8962 15.2161 23.8975 15.2054C24.3975 10.0284 23.0595 5.53136 20.3485 1.54536C20.3421 1.53192 20.3311 1.52125 20.3175 1.51536V1.51636ZM8.02048 12.4764C6.83748 12.4764 5.86348 11.3914 5.86348 10.0574C5.86348 8.72436 6.81948 7.63836 8.02048 7.63836C9.23048 7.63836 10.1965 8.73436 10.1775 10.0584C10.1775 11.3914 9.22148 12.4764 8.02048 12.4764ZM15.9955 12.4764C14.8125 12.4764 13.8385 11.3914 13.8385 10.0574C13.8385 8.72436 14.7935 7.63836 15.9955 7.63836C17.2055 7.63836 18.1715 8.73436 18.1525 10.0584C18.1525 11.3914 17.2065 12.4764 15.9955 12.4764Z" fill="#A7A7A8"/>
</svg>
