<svg width="42" height="42" viewBox="0 0 42 42" fill="none" xmlns="http://www.w3.org/2000/svg">
<circle cx="21" cy="21" r="21" fill="#21272F"/>
<path fill-rule="evenodd" clip-rule="evenodd" d="M21.2895 18.4737C22.9611 18.4737 24.3158 19.8284 24.3158 21.5C24.3158 23.1716 22.9611 24.5263 21.2895 24.5263C19.6179 24.5263 18.2632 23.1716 18.2632 21.5C18.2632 19.8284 19.6179 18.4737 21.2895 18.4737Z" stroke="#A812D7" stroke-width="1.5" stroke-linecap="round" stroke-linejoin="round"/>
<path fill-rule="evenodd" clip-rule="evenodd" d="M31.1771 15.7503C30.3497 14.307 28.5178 13.8132 27.0861 14.6466C25.8408 15.3701 24.2844 14.4649 24.2844 13.0168C24.2844 11.3512 22.9429 10 21.2892 10C19.6355 10 18.294 11.3512 18.294 13.0168C18.294 14.4649 16.7376 15.3701 15.4935 14.6466C14.0606 13.8132 12.2288 14.307 11.4013 15.7503C10.5751 17.1936 11.0654 19.0386 12.4983 19.8708C13.7424 20.5954 13.7424 22.4046 12.4983 23.1292C11.0654 23.9626 10.5751 25.8077 11.4013 27.2498C12.2288 28.6929 14.0606 29.1868 15.4923 28.3546H15.4935C16.7376 27.63 18.294 28.5351 18.294 29.9831C18.294 31.6488 19.6355 33 21.2892 33C22.9429 33 24.2844 31.6488 24.2844 29.9831C24.2844 28.5351 25.8408 27.63 27.0861 28.3546C28.5178 29.1868 30.3497 28.6929 31.1771 27.2498C32.0044 25.8077 31.513 23.9626 30.0813 23.1292H30.0801C28.836 22.4046 28.836 20.5954 30.0813 19.8708C31.513 19.0386 32.0044 17.1936 31.1771 15.7503Z" stroke="#A812D7" stroke-width="1.5" stroke-linecap="round" stroke-linejoin="round"/>
</svg>
