<svg width="20" height="20" viewBox="0 0 20 20" fill="none" xmlns="http://www.w3.org/2000/svg">
<path d="M19.7337 18.4481L16.6452 15.3596C17.9833 13.7361 18.7879 11.6572 18.7879 9.39394C18.7879 4.21412 14.5737 0 9.39393 0C4.21405 0 0 4.21412 0 9.39394C0 14.5738 4.21405 18.7879 9.39393 18.7879C11.6572 18.7879 13.736 17.9833 15.3596 16.6452L18.4482 19.7338C18.6255 19.9112 18.8583 20 19.0909 20C19.3236 20 19.5562 19.9112 19.7337 19.7337C20.0888 19.3787 20.0888 18.8032 19.7337 18.4481ZM1.81818 9.39394C1.81818 5.21667 5.2166 1.81818 9.39393 1.81818C13.5713 1.81818 16.9697 5.21667 16.9697 9.39394C16.9697 13.5712 13.5713 16.9697 9.39393 16.9697C5.2166 16.9697 1.81818 13.5713 1.81818 9.39394Z" fill="white"/>
</svg>
