<?xml version="1.0" encoding="utf-8"?>
<!-- Generator: Adobe Illustrator 26.3.1, SVG Export Plug-In . SVG Version: 6.00 Build 0)  -->
<svg version="1.1" id="Layer_1" xmlns="http://www.w3.org/2000/svg" xmlns:xlink="http://www.w3.org/1999/xlink" x="0px" y="0px"
	 viewBox="0 0 74 74" style="enable-background:new 0 0 74 74;" xml:space="preserve">
<style type="text/css">
	.st0{fill:url(#Path_00000040546520566485521980000016851522066716967344_);}
	.st1{fill:#FFFFFF;}
</style>
<linearGradient id="Path_00000052790686937965512010000003943523931560397237_" gradientUnits="userSpaceOnUse" x1="3.1754" y1="5.2641" x2="64.8181" y2="66.7179" gradientTransform="matrix(1 0 0 -1 0 76)">
	<stop  offset="0.18" style="stop-color:#920BBC"/>
	<stop  offset="0.84" style="stop-color:#0049DD"/>
</linearGradient>
<path id="Path" style="fill:url(#Path_00000052790686937965512010000003943523931560397237_);" d="M63.2,10.8C55.9,3.6,47.2,0,37,0
	S18.1,3.6,10.8,10.8C3.6,18.1,0,26.8,0,37S3.6,56,10.8,63.2C18.1,70.4,26.8,74,37,74s18.9-3.6,26.2-10.8C70.4,56,74,47.2,74,37
	S70.4,18.1,63.2,10.8L63.2,10.8z"/>
<g>
	<path class="st1" d="M51.6,45c0,5.9-4.2,11-11.8,12.3v6.8h-6.5v-6.3c-4.5-0.2-8.8-1.4-11.3-2.9l2-7.8c2.8,1.5,6.7,2.9,11,2.9
		c3.8,0,6.4-1.5,6.4-4.1c0-2.5-2.1-4.1-7-5.8c-7.1-2.4-12-5.7-12-12.2c0-5.9,4.1-10.4,11.2-11.8V9.9h6.5v5.8
		c4.5,0.2,7.4,1.1,9.6,2.2l-1.9,7.5c-1.7-0.7-4.8-2.3-9.6-2.3c-4.3,0-5.7,1.9-5.7,3.7c0,2.2,2.3,3.6,8,5.7
		C48.4,35.4,51.6,39.1,51.6,45z"/>
</g>
</svg>
