<svg width="63" height="64" viewBox="0 0 63 64" fill="none" xmlns="http://www.w3.org/2000/svg">
<path d="M31.7 0.949951C23.1 0.949951 15.8 3.94996 9.69995 10.05C3.69995 16.15 0.699951 23.45 0.699951 31.95C0.699951 40.5499 3.69995 47.85 9.69995 53.95C15.8 60.0499 23.1 63.05 31.7 63.05C40.2999 63.05 47.5999 60.0499 53.5999 53.95C59.6999 47.85 62.7 40.5499 62.7 31.95C62.7 23.35 59.6999 16.05 53.5999 10.05C47.5999 3.94996 40.2999 0.949951 31.7 0.949951ZM21.2 20.45C21.2 17.55 22.2 15.05 24.2 13.05C26.3 11.05 28.7 9.94995 31.7 9.94995C34.6 9.94995 37.0999 10.95 39.0999 13.05C41.1999 15.15 42.2 17.55 42.2 20.45C42.2 23.35 41.1999 25.8499 39.0999 27.8499C37.0999 29.9499 34.6 30.95 31.7 30.95C28.8 30.95 26.3 29.9499 24.2 27.8499C22.2 25.8499 21.2 23.35 21.2 20.45ZM24.4999 36.65C26.9999 36.35 29.3999 36.15 31.7999 36.05C34.1999 36.05 36.5999 36.25 39.0999 36.65C44.0999 37.25 47.1999 40.05 48.4999 45.05C48.7999 47.35 47.7999 49.0499 45.5999 50.45C44.2999 51.25 43 51.85 41.7 52.45C38.4 53.75 35.1 54.4499 31.7 54.3499C28.4 54.4499 25.1 53.75 21.7 52.45C20.4 51.95 19.0999 51.25 17.7999 50.45C15.5999 49.15 14.5999 47.35 14.8999 45.05C16.3999 40.05 19.4999 37.25 24.4999 36.65Z" fill="white"/>
</svg>
