<svg width="43" height="43" viewBox="0 0 43 43" fill="none" xmlns="http://www.w3.org/2000/svg">
<path d="M36.7012 6.3007C32.502 2.10023 27.435 0 21.5 0C15.565 0 10.4936 2.10023 6.28563 6.3007C2.09521 10.5099 0 15.5786 0 21.5066C0 27.4434 2.09521 32.5164 6.28563 36.7256C10.4936 40.9085 15.565 43 21.5 43C27.435 43 32.502 40.9085 36.7012 36.7256C40.9004 32.5164 43 27.4434 43 21.5066C43 15.5786 40.9004 10.5099 36.7012 6.3007ZM20.4612 15.7978L20.4349 15.8504L20.448 15.7978H20.4612Z" fill="#A812D7"/>
<path d="M21.9692 12.2921C21.574 11.9026 20.9403 11.9026 20.5451 12.2921L15.2964 17.4722C14.9012 17.8616 14.9012 18.4862 15.2964 18.8756C15.6915 19.265 16.3252 19.265 16.7204 18.8756L20.2618 15.3854V29.0081C20.2618 29.5591 20.7092 30 21.2683 30C21.8275 30 22.2748 29.5591 22.2748 29.0081V15.3854L25.8088 18.8683C26.0027 19.0593 26.2636 19.1622 26.5171 19.1622C26.7706 19.1622 27.0315 19.0666 27.2254 18.8683C27.6205 18.4788 27.6205 17.8543 27.2254 17.4648L21.9692 12.2921Z" fill="white"/>
</svg>
