<svg width="43" height="43" viewBox="0 0 43 43" fill="none" xmlns="http://www.w3.org/2000/svg">
<path d="M36.7012 6.3007C32.502 2.10023 27.435 0 21.5 0C15.565 0 10.4936 2.10023 6.28563 6.3007C2.09521 10.5099 0 15.5786 0 21.5066C0 27.4434 2.09521 32.5164 6.28563 36.7256C10.4936 40.9085 15.565 43 21.5 43C27.435 43 32.502 40.9085 36.7012 36.7256C40.9004 32.5164 43 27.4434 43 21.5066C43 15.5786 40.9004 10.5099 36.7012 6.3007ZM20.4612 15.7978L20.4349 15.8504L20.448 15.7978H20.4612Z" fill="#A812D7"/>
<path d="M14 18.0012H27L25.4 19.2012C25.2949 19.28 25.2064 19.3787 25.1395 19.4917C25.0726 19.6047 25.0286 19.7297 25.0101 19.8597C24.9915 19.9897 24.9987 20.1221 25.0313 20.2493C25.0639 20.3766 25.1212 20.4961 25.2 20.6012C25.2931 20.7254 25.4139 20.8262 25.5528 20.8956C25.6916 20.965 25.8448 21.0012 26 21.0012C26.2164 21.0012 26.4269 20.931 26.6 20.8012L30.6 17.8012C30.7223 17.7078 30.8214 17.5876 30.8897 17.4497C30.9579 17.3118 30.9934 17.16 30.9934 17.0062C30.9934 16.8523 30.9579 16.7005 30.8897 16.5627C30.8214 16.4248 30.7223 16.3045 30.6 16.2112L26.74 13.2112C26.5305 13.0481 26.2647 12.9749 26.0013 13.0077C25.7378 13.0405 25.4981 13.1766 25.335 13.3862C25.1719 13.5957 25.0987 13.8614 25.1315 14.1249C25.1643 14.3884 25.3005 14.6281 25.51 14.7912L27.08 16.0012H14C13.7348 16.0012 13.4804 16.1065 13.2929 16.2941C13.1054 16.4816 13 16.7359 13 17.0012C13 17.2664 13.1054 17.5207 13.2929 17.7083C13.4804 17.8958 13.7348 18.0012 14 18.0012Z" fill="white"/>
<path d="M30 25.0012H17L18.6 23.8012C18.8122 23.642 18.9524 23.4051 18.9899 23.1426C19.0274 22.88 18.9591 22.6133 18.8 22.4012C18.6409 22.189 18.404 22.0487 18.1414 22.0112C17.8789 21.9737 17.6122 22.042 17.4 22.2012L13.4 25.2012C13.2777 25.2945 13.1786 25.4148 13.1103 25.5527C13.0421 25.6905 13.0066 25.8423 13.0066 25.9962C13.0066 26.15 13.0421 26.3018 13.1103 26.4397C13.1786 26.5776 13.2777 26.6978 13.4 26.7912L17.26 29.7912C17.4345 29.9266 17.649 30.0005 17.87 30.0012C18.0227 30.0008 18.1733 29.9655 18.3102 29.8979C18.4472 29.8302 18.5668 29.7322 18.66 29.6112C18.8224 29.4027 18.8956 29.1384 18.8638 28.8761C18.8319 28.6138 18.6975 28.3747 18.49 28.2112L16.92 27.0012H30C30.2652 27.0012 30.5196 26.8958 30.7071 26.7083C30.8946 26.5207 31 26.2664 31 26.0012C31 25.7359 30.8946 25.4816 30.7071 25.2941C30.5196 25.1065 30.2652 25.0012 30 25.0012Z" fill="white"/>
</svg>
