<svg width="43" height="43" viewBox="0 0 43 43" fill="none" xmlns="http://www.w3.org/2000/svg">
<path d="M36.7012 6.3007C32.502 2.10023 27.435 0 21.5 0C15.565 0 10.4936 2.10023 6.28563 6.3007C2.09521 10.5099 0 15.5786 0 21.5066C0 27.4434 2.09521 32.5164 6.28563 36.7256C10.4936 40.9085 15.565 43 21.5 43C27.435 43 32.502 40.9085 36.7012 36.7256C40.9004 32.5164 43 27.4434 43 21.5066C43 15.5786 40.9004 10.5099 36.7012 6.3007ZM20.4612 15.7978L20.4349 15.8504L20.448 15.7978H20.4612Z" fill="#A812D7"/>
<path d="M20.5526 30.7079C20.9477 31.0974 21.5815 31.0974 21.9766 30.7079L27.2254 25.5278C27.6205 25.1384 27.6205 24.5138 27.2254 24.1244C26.8302 23.735 26.1965 23.735 25.8013 24.1244L22.2599 27.6146L22.2599 13.9919C22.2599 13.4409 21.8126 13 21.2534 13C20.6942 13 20.2469 13.4409 20.2469 13.9919L20.2469 27.6146L16.7129 24.1317C16.5191 23.9407 16.2581 23.8378 16.0046 23.8378C15.7511 23.8378 15.4902 23.9334 15.2963 24.1317C14.9012 24.5212 14.9012 25.1457 15.2963 25.5352L20.5526 30.7079Z" fill="white"/>
</svg>
