<?xml version="1.0" encoding="utf-8"?>
<!-- Generator: Adobe Illustrator 26.3.1, SVG Export Plug-In . SVG Version: 6.00 Build 0)  -->
<svg version="1.1" id="katman_1" xmlns="http://www.w3.org/2000/svg" xmlns:xlink="http://www.w3.org/1999/xlink" x="0px" y="0px"
	 viewBox="0 0 600 600" style="enable-background:new 0 0 600 600;" xml:space="preserve">
<style type="text/css">
	.st0{fill:#FFFFFF;}
</style>
<path d="M300,600c165.7,0,300-134.3,300-300S465.7,0,300,0C134.3,0,0,134.2,0,300C0,465.7,134.3,600,300,600z"/>
<path class="st0" d="M199.9,433.8l41.8-72.1l41.8-71.8l41.6-72.1l6.8-11.4l3.1,11.4l12.7,47.4l-14.2,24.6l-41.8,71.8l-41.6,72.1H300
	l41.8-72.1l21.7-37.3l10.2,37.3l19.3,72.1h44.9l-19.3-72.1l-19.4-71.8l-5.1-18.5l31.1-53.6h-45.3l-1.5-5.3l-15.8-58.9l-2-7.7H317
	l-1.1,1.5l-40.7,70.3l-41.8,72.1l-41.6,71.8L150,433.8H199.9z"/>
</svg>
