<?xml version="1.0" encoding="UTF-8"?><svg id="Layer_1" xmlns="http://www.w3.org/2000/svg" viewBox="0 0 63.99 64"><defs><style>.cls-1{fill:#f7931a;}.cls-2{fill:#fff;}</style></defs><g transform="translate(0.00630876,-0.00301984)"><path class="cls-1" d="M63.04,39.74c-4.27,17.14-21.64,27.58-38.78,23.3C7.12,58.77-3.32,41.4,.96,24.26,5.23,7.12,22.59-3.32,39.73,.96c17.14,4.27,27.58,21.64,23.3,38.78Z"/><path class="cls-2" d="M46.11,27.44c.64-4.26-2.6-6.55-7.04-8.07l1.44-5.77-3.51-.88-1.4,5.62c-.92-.23-1.87-.45-2.81-.66l1.41-5.65-3.51-.88-1.44,5.77c-.76-.17-1.51-.35-2.24-.53v-.02l-4.84-1.21-.93,3.75s2.6,.6,2.55,.63c1.42,.35,1.68,1.3,1.64,2.04l-1.64,6.57c.1,.02,.23,.06,.36,.12-.12-.03-.24-.06-.37-.09l-2.3,9.2c-.17,.43-.61,1.08-1.61,.83,.03,.05-2.55-.64-2.55-.64l-1.74,4.02,4.57,1.14c.85,.21,1.68,.44,2.5,.65l-1.45,5.83,3.51,.88,1.44-5.77c.96,.26,1.89,.5,2.8,.73l-1.43,5.74,3.51,.88,1.45-5.82c5.99,1.13,10.49,.68,12.38-4.74,1.53-4.36-.08-6.88-3.23-8.51,2.29-.53,4.02-2.04,4.48-5.15Zm-8.02,11.25c-1.08,4.36-8.43,2-10.81,1.41l1.93-7.73c2.38,.59,10.01,1.77,8.88,6.32Zm1.09-11.31c-.99,3.97-7.1,1.95-9.08,1.46l1.75-7.01c1.98,.49,8.36,1.42,7.33,5.55Z"/></g></svg>