<?xml version="1.0" encoding="utf-8"?>
<!-- Generator: Adobe Illustrator 26.3.1, SVG Export Plug-In . SVG Version: 6.00 Build 0)  -->
<svg version="1.1" id="Layer_1" xmlns="http://www.w3.org/2000/svg" xmlns:xlink="http://www.w3.org/1999/xlink" x="0px" y="0px"
	 viewBox="0 0 3021.5 3021.5" style="enable-background:new 0 0 3021.5 3021.5;" xml:space="preserve">
<style type="text/css">
	.st0{fill:#FFFFFF;}
	.st1{fill:#D3232A;}
</style>
<ellipse class="st0" cx="1514.1" cy="1454.4" rx="1384.5" ry="1373"/>
<g id="Layer_2_00000092449034030736451050000002750289509337704328_">
	<g id="Layer_1-2">
		<path class="st1" d="M1510.6,0C676.3,0,0,676.6,0,1510.9s676.3,1510.6,1510.6,1510.6c834.5,0,1510.9-676.3,1510.9-1510.6
			S2345.2,0,1510.6,0z M1486.6,1836.4c-19,44.7-48.8,88.7-89.5,131.9c-40.7,43.2-92.5,78.3-155.9,105.1
			c-63.2,27-136.8,40.5-220.9,40.4c-64,0-121.8-6.1-174.1-18.2c-52.1-11.9-99.6-30.8-142.3-56.4c-42.5-25.5-81.6-59.4-117.5-101.1
			c-32.5-38.8-59.9-81.6-81.6-127.4c-22.8-48-39.9-98.6-50.8-150.6c-11.1-53.3-16.9-109.9-16.9-169.8c0-97.3,14.4-184.5,42.7-261.6
			c28.3-76.8,68.8-142.6,121.6-197.4c52.8-54.8,114.8-96.3,185.5-125.1c71-28.6,146.7-42.8,227-42.7c97.8,0,184.9,19.5,261.3,58.4
			c76.6,39.2,135.1,87.5,175.7,144.8c40.7,57.6,61.2,111.7,61.2,163c0,28.1-9.9,52.8-29.8,74.1c-19.7,21.5-43.7,32.3-71.5,32.3
			c-31.6,0-55.1-7.6-70.8-22.2c-15.7-14.9-33.1-40.4-52.3-76.8c-31.9-59.9-69.3-104.7-112.5-134.5c-43.2-29.6-96.5-44.4-159.7-44.5
			c-100.6,0-180.7,38.2-240.3,114.7c-59.7,76.3-89.5,184.9-89.5,325.8c0,94,13.1,172.2,39.4,234.5c26.5,62.4,63.9,109,112.2,139.8
			c48.5,30.8,105.2,46.2,170.1,46.2c70.3,0,129.9-17.4,178.4-52.3c48.8-34.9,85.5-86.2,110.2-153.9c10.4-31.8,23.2-57.9,38.7-77.8
			c15.4-20.2,40.2-30.1,74.3-30.1c29.1,0,54.1,10.1,75.1,30.3c21,20.5,31.3,45.8,31.3,76.1C1515.2,1750,1505.6,1791.7,1486.6,1836.4
			L1486.6,1836.4z M2489.7,1916.5c-29.6,54.6-72.9,99.2-129.9,133.9c-57,34.7-124.9,55.4-203.7,61.9v205.2c0,32.6-3.3,56.1-9.6,71
			s-20.2,22.2-41.7,22.2c-19.7,0-33.6-6.1-41.4-18.2c-8.1-12.1-12.1-30.6-12.1-56.1v-222.6c-64.2-7.1-120.6-22.2-168.6-45.2
			c-48-23.3-88.2-51.8-120.6-86.2c-32.1-34.4-55.9-70.2-71.3-107.4c-15.4-36.9-23-73.6-23-109.2c0-26.3,10.4-50,30.8-71.3
			c20.7-21.2,46.3-31.8,77.1-31.8c24.8,0,45.8,5.8,62.7,17.4c17.2,11.4,29.1,27.8,35.6,48.5c14.7,45.2,27.8,79.6,38.7,103.6
			c11.1,23.8,27.5,45.8,49.8,65.5c22.5,20,52.1,34.9,88.7,45.5v-383.7c-73.5-20.2-135.1-42.9-184.8-68
			c-49.5-25-89.5-60.7-120.3-106.9c-30.8-46-46.3-105.4-46.2-178.2c0-94.5,30.1-172,90.2-232.5c60.4-60.4,147.4-95.6,261.1-105.7
			V781c0-46,17.4-69.2,52.1-69.2c35.1,0,52.8,22.5,52.8,67.7v89c58.9,6.1,109.2,18.2,151.4,36.4c42,18.2,78.6,45.5,109.9,82.4
			c24.8,28,44,56.9,57.4,86.7c13.4,29.6,20.2,56.9,20.2,81.6c0,27.6-10.1,51.3-30.1,71.3c-20,20.2-44.5,30.1-73,30.1
			c-53.8,0-88.7-29.2-104.6-87.4c-18.2-68.5-61.9-114.2-131.2-136.7v343c68.2,18.7,122.3,35.9,162.8,51.3
			c40,15.2,76.8,37.8,108.4,66.7c33.9,30,60.8,67,78.9,108.4c18.4,42.2,27.6,88.3,27.6,138.2
			C2533.7,1803.1,2519,1861.8,2489.7,1916.5L2489.7,1916.5z M2156.1,1590.2v361.2c55.6-10.9,98.3-33.1,128.6-66.7
			s45.2-72.5,45.2-117c0-48-14.7-85-44-111C2256.4,1630.4,2213.2,1608.4,2156.1,1590.2L2156.1,1590.2z M1904.4,1186.1
			c0,43.5,12.1,76.3,36.4,98.6c24.3,22.2,60.9,42.5,110.4,60.7v-315.9c-46,13.6-82.1,31.8-107.9,54.3S1904.4,1140.4,1904.4,1186.1z"
			/>
	</g>
</g>
</svg>
