<svg width="20" height="20" viewBox="0 0 20 20" fill="none" xmlns="http://www.w3.org/2000/svg">
<g clip-path="url(#clip0_1867_13893)">
<path d="M10 0C15.5234 0 20 4.47754 20 10C20 15.5234 15.5234 20 10 20C4.47754 20 0 15.5229 0 10C0 4.47754 4.47754 0 10 0Z" fill="#F5AC37"/>
<path d="M10.3682 10.7061H14.168C14.249 10.7061 14.2873 10.7061 14.2931 10.5999C14.3242 10.2134 14.3242 9.82458 14.2931 9.43758C14.2931 9.36243 14.2558 9.33138 14.1743 9.33138H6.61198C6.51838 9.33138 6.49318 9.36243 6.49318 9.45018V10.5626C6.49318 10.7061 6.49318 10.7061 6.64303 10.7061H10.3682ZM13.8688 8.03131C13.8796 8.00296 13.8796 7.97191 13.8688 7.94401C13.8053 7.80586 13.7302 7.67401 13.6429 7.55026C13.5115 7.33876 13.3567 7.1439 13.1803 6.96885C13.097 6.8631 13.0007 6.76815 12.8927 6.6876C12.3518 6.22724 11.7087 5.90144 11.0175 5.73764C10.6688 5.65934 10.3124 5.62199 9.95507 5.62514H6.59893C6.50533 5.62514 6.49273 5.66249 6.49273 5.74394V7.96246C6.49273 8.05606 6.49273 8.08126 6.61153 8.08126H13.8238C13.8238 8.08126 13.8863 8.06866 13.8989 8.03131H13.8683H13.8688ZM13.8688 12.0062C13.7626 11.9945 13.6555 11.9945 13.5493 12.0062H6.61828C6.52468 12.0062 6.49318 12.0062 6.49318 12.1313V14.3003C6.49318 14.4002 6.49318 14.4254 6.61828 14.4254H9.81827C9.97127 14.4371 10.1243 14.4263 10.2741 14.3944C10.7385 14.3611 11.1953 14.2603 11.6309 14.0942C11.7893 14.0393 11.9423 13.9678 12.0867 13.8818H12.1304C12.8805 13.4917 13.4899 12.8788 13.8742 12.1264C13.8742 12.1264 13.9178 12.0319 13.8688 12.0071V12.0062ZM5.23722 15.55V15.5126V14.0564V13.5628V12.094C5.23722 12.0125 5.23722 12.0004 5.13732 12.0004H3.78101C3.70586 12.0004 3.6748 12.0004 3.6748 11.9005V10.7129H5.12472C5.20572 10.7129 5.23722 10.7129 5.23722 10.6067V9.43173C5.23722 9.35658 5.23722 9.33813 5.13732 9.33813H3.78101C3.70586 9.33813 3.6748 9.33813 3.6748 9.23822V8.13841C3.6748 8.06956 3.6748 8.05111 3.77471 8.05111H5.11842C5.21202 8.05111 5.23722 8.05111 5.23722 7.93231V4.56358C5.23722 4.46368 5.23722 4.43848 5.36232 4.43848H10.0496C10.3898 4.45198 10.7277 4.48933 11.0621 4.55098C11.751 4.67833 12.413 4.92448 13.0182 5.27593C13.4197 5.51219 13.7891 5.79749 14.1181 6.12599C14.3656 6.38295 14.5888 6.66105 14.7868 6.95715C14.9834 7.25731 15.1468 7.57816 15.275 7.91341C15.2908 8.00071 15.3745 8.05966 15.4618 8.04481H16.5805C16.724 8.04481 16.724 8.04481 16.7303 8.18251V9.20762C16.7303 9.30753 16.693 9.33273 16.5926 9.33273H15.73C15.6427 9.33273 15.6175 9.33273 15.6238 9.44523C15.658 9.82593 15.658 10.208 15.6238 10.5887C15.6238 10.6949 15.6238 10.7075 15.743 10.7075H16.7299C16.7735 10.7637 16.7299 10.82 16.7299 10.8767C16.7362 10.9491 16.7362 11.0225 16.7299 11.0949V11.8514C16.7299 11.9576 16.6988 11.9891 16.6048 11.9891H15.4235C15.3412 11.9734 15.2611 12.026 15.2422 12.1079C14.9609 12.8392 14.5109 13.4948 13.9295 14.0204C13.7171 14.2117 13.4939 14.3917 13.2608 14.5577C13.0106 14.7017 12.7671 14.8516 12.5106 14.9704C12.0386 15.1828 11.5436 15.3394 11.0355 15.4388C10.5531 15.5252 10.064 15.5644 9.57301 15.5576H5.23542V15.5513L5.23722 15.55Z" fill="#FEFEFD"/>
</g>
<defs>
<clipPath id="clip0_1867_13893">
<rect width="20" height="20" fill="white"/>
</clipPath>
</defs>
</svg>
