<?xml version="1.0" encoding="utf-8"?>
<!-- Generator: Adobe Illustrator 26.3.1, SVG Export Plug-In . SVG Version: 6.00 Build 0)  -->
<svg version="1.1"
	 id="svg9019" xmlns:svg="http://www.w3.org/2000/svg" xmlns:rdf="http://www.w3.org/1999/02/22-rdf-syntax-ns#" xmlns:cc="http://creativecommons.org/ns#" xmlns:dc="http://purl.org/dc/elements/1.1/"
	 xmlns="http://www.w3.org/2000/svg" xmlns:xlink="http://www.w3.org/1999/xlink" x="0px" y="0px" viewBox="0 0 1000 1000"
	 style="enable-background:new 0 0 1000 1000;" xml:space="preserve">
<style type="text/css">
	.st0{fill-rule:evenodd;clip-rule:evenodd;fill:#F3E899;}
	.st1{fill:#957527;}
	.st2{fill-rule:evenodd;clip-rule:evenodd;fill:#F3EBAD;}
</style>
<g id="layer1" transform="translate(655.71992,-52.135664)">
	<g id="g10236">
		<path id="path10216" class="st0" d="M-534.1,547.3l-56.3,34.4l-20.3,15.6l-23.5,123.6l286.3,72l7.8,1.6l32.8-23.5l107.9,31.3
			l178.3,56.3l26.6,3.1l331.6-214.3l1.6-14.1l-48.5-122l-7.8-10.9l-17.2-4.7l-126.7-18.8c-26.7-23.3-25.9,2.3-4.7-21.9l68.8-48.5
			l-10.9-20.3l-42.2-106.4l-6.3-9.4l-15.6-3.1l-245.6,25l-270.6,125.1l-23.5,14.1l-42.2,86l-37.5,29.7L-534.1,547.3z"/>
		<path id="path9586" class="st1" d="M-147,835.4c-73.9-14.6-141.9-28-151.1-29.8c-12-2.3-16.8-6.3-16.8-13.7
			c0-8.4,39.1-124.2,44.1-130.7c2.1-2.7,184.7,26.6,196.2,31.5c7.4,3.1,19.1,27.6,40,83.4c30.5,81.3,32.3,87.5,25.8,86.5
			C-11,862.2-73.2,850-147,835.4z M5.4,858c0-2.9,72.6-51.3,161.4-107.8s163.5-104.5,166-106.9c4.7-4.5,1.7-14-29.7-91.5
			c-10.1-24.9-16.4-45.3-14.1-45.3s11.8,19.1,21.1,42.5c9.2,23.4,21.5,53.2,27.3,66.2c6.1,13.7,8.5,25.6,5.9,28.4
			c-6,6.2-331.6,219.5-335.1,219.5C6.6,863.2,5.4,860.8,5.4,858L5.4,858z M-487.9,769.6c-73.9-14.6-141.9-28-151.1-29.8
			c-12-2.3-16.8-6.3-16.8-13.7c0-8.4,39.1-124.2,44.1-130.7c2.1-2.7,184.7,26.6,196.2,31.5c7.4,3.1,19.1,27.6,40,83.4
			c30.5,81.3,32.3,87.5,25.7,86.4C-351.9,796.4-414.1,784.2-487.9,769.6L-487.9,769.6z M-334.6,791.5c1.2-4,5.3-8.3,9-9.6
			c3.9-1.4,5.8,0.7,4.5,4.8c-1.2,4-5.3,8.3-9,9.6C-333.9,797.7-335.9,795.6-334.6,791.5L-334.6,791.5z M-166,663.7
			c-44.5-6.4-82.5-13.4-84.4-15.4s1.9-6.7,8.4-10.4c9.3-5.3,20.2-5.3,50.8-0.2c69.6,11.7,58.4,16,199.8-77.1l129.9-85.5l63.8,10.2
			c35.1,5.6,67.3,10.9,71.6,11.8c4.3,0.8-66,41.6-156.2,90.6C-13.7,659-50.1,676.6-65.7,676.1C-76.3,675.7-121.5,670.1-166,663.7
			L-166,663.7z M-286.5,605c-73.9-14.6-141.9-28-151.1-29.8c-12-2.3-16.8-6.3-16.8-13.7c0-8.4,39.1-124.2,44.1-130.7
			c2.1-2.7,184.7,26.6,196.2,31.5c7.4,3.1,19.1,27.6,40,83.4c30.5,81.3,32.3,87.5,25.7,86.4C-150.4,631.8-212.6,619.6-286.5,605
			L-286.5,605z M-508.4,597.8c-45.3-6.4-82.1-14-81.8-16.7c0.6-4.2,125.8-69,133.4-69c1.4,0-1,9.1-5.4,20.3
			c-9.2,23.5-5.9,49.2,6.9,53.2c7.7,2.4,67.4,14.3,71.6,14.3c0.9,0,1.6,2.5,1.6,5.5C-382.1,613.1-414.1,611.2-508.4,597.8z
			 M124.2,460.2c0-1.4,16.3-12.8,36.2-25.3s36.2-24.7,36.2-27c0-4.4-3.3-13.2-33-86.5c-10.1-24.9-16.4-45.3-14.1-45.3
			c3.2,0,38.5,81.9,55.8,129.7c1.2,3.4-14.9,17.6-35.9,31.5C132.9,461.4,124.2,465.8,124.2,460.2L124.2,460.2z M-307,433.2
			c-45.3-6.4-82.1-14-81.7-16.7c0.4-2.7,70-39.2,154.8-81.1c84.7-41.9,163.1-80.9,174.3-86.7c20.2-10.6,20.4-10.6,105.9,3.1
			c47.1,7.6,87.9,14.4,90.6,15.2c2.7,0.8-68.8,41.4-158.8,90.3c-131.2,71.2-167.6,88.8-183.2,88.3
			C-215.8,445.2-261.6,439.7-307,433.2z"/>
		<path id="path10218" class="st2" d="M246.5,552c-27.5,23.4-61.7,30.7-94.5,38.3C123.1,620.8,79.3,627,51.2,657
			c-14.7,32.6-56.5,51.3-73.8,71.4c31.3,7,80.5,18.3,94.9-21.4c8.2-36.1,44.8-38.5,74.2-42.4c52.1-13.7,84.9-60.1,121.3-96.3
			C278.3,550.8,256.7,552.4,246.5,552z"/>
		<path id="path10225" class="st2" d="M124.4,325.2c-27.5,23.4-61.7,30.7-94.5,38.3C1,394-42.8,400.2-70.9,430.2
			c-14.7,32.6-56.5,51.3-73.8,71.4c31.3,7,80.5,18.3,94.9-21.4c8.2-36.1,44.8-38.5,74.2-42.4c52.1-13.7,84.9-60.1,121.3-96.3
			C156.3,324,134.7,325.6,124.4,325.2L124.4,325.2z"/>
		<path id="path10227" class="st2" d="M-318.2,619.3c-7,8.3-21,6.4-26.5,15.2c-4.1,12.2-16.2,15.2-25.7,21.4
			c-6.4,4.7,5.3,12.8,8.2,13.5c15.5-1.8,25.4-16.7,41-19.7c11.5-5.3,26.3-8.6,30.8-22.2c2.2-6.6,12.7-14.3-1.2-11.7
			C-300.6,616-309.2,619.6-318.2,619.3L-318.2,619.3z"/>
	</g>
</g>
</svg>
