<?xml version="1.0" encoding="utf-8"?>
<!-- Generator: Adobe Illustrator 26.3.1, SVG Export Plug-In . SVG Version: 6.00 Build 0)  -->
<svg version="1.1" id="Layer_1" xmlns="http://www.w3.org/2000/svg" xmlns:xlink="http://www.w3.org/1999/xlink" x="0px" y="0px"
	 viewBox="0 0 30 33.5" style="enable-background:new 0 0 30 33.5;" xml:space="preserve">
<style type="text/css">
	.st0{fill:#8247E5;}
</style>
<g>
	<path class="st0" d="M22.7,11.6c-0.5-0.3-1.3-0.3-1.9,0l-4.4,2.6l-3,1.6l-4.3,2.6c-0.5,0.3-1.3,0.3-1.9,0l-3.4-2
		C3.4,16.1,3,15.5,3,14.8v-3.9c0-0.6,0.3-1.3,0.9-1.6l3.4-2c0.5-0.3,1.3-0.3,1.9,0l3.4,2c0.5,0.3,0.9,0.9,0.9,1.6v2.6l3-1.7V9.1
		c0-0.6-0.3-1.3-0.9-1.6L9.2,3.8C8.7,3.5,8,3.5,7.4,3.8L0.9,7.5C0.3,7.9,0,8.5,0,9.1v7.4c0,0.6,0.3,1.3,0.9,1.6l6.3,3.7
		c0.5,0.3,1.3,0.3,1.9,0l4.3-2.5l3-1.7l4.3-2.5c0.5-0.3,1.3-0.3,1.9,0l3.4,2c0.5,0.3,0.9,0.9,0.9,1.6v3.9c0,0.6-0.3,1.3-0.9,1.6
		l-3.3,2c-0.5,0.3-1.3,0.3-1.9,0l-3.4-2c-0.5-0.3-0.9-0.9-0.9-1.6v-2.5l-3,1.7v2.6c0,0.6,0.3,1.3,0.9,1.6l6.3,3.7
		c0.5,0.3,1.3,0.3,1.9,0l6.3-3.7c0.5-0.3,0.9-0.9,0.9-1.6v-7.4c0-0.6-0.3-1.3-0.9-1.6L22.7,11.6z"/>
</g>
</svg>
