<?xml version="1.0" encoding="utf-8"?>
<!-- Generator: Adobe Illustrator 26.3.1, SVG Export Plug-In . SVG Version: 6.00 Build 0)  -->
<svg version="1.1" id="katman_1" xmlns="http://www.w3.org/2000/svg" xmlns:xlink="http://www.w3.org/1999/xlink" x="0px" y="0px"
	 viewBox="0 0 462.6 462.8" style="enable-background:new 0 0 462.6 462.8;" xml:space="preserve">
<style type="text/css">
	.st0{fill:#EDEDED;}
</style>
<path class="st0" d="M231.4,462.8c127.8,0,231.4-103.6,231.4-231.4S359.2,0,231.4,0S0,103.6,0,231.4
	C0,359.2,103.6,462.8,231.4,462.8z"/>
<path d="M306.1,120.3l-52.2,77.5c-3.6,5.3,3.3,11.7,8.3,7.2l51.4-44.7c1.4-1.1,3.3-0.3,3.3,1.7v139.8c0,1.9-2.5,2.8-3.6,1.4
	L157.9,117c-5-6.1-12.2-9.4-20.3-9.4H132c-14.4,0-26.4,12-26.4,26.7v196.8c0,14.7,11.9,26.7,26.7,26.7c9.2,0,17.8-4.7,22.8-12.8
	l52.2-77.5c3.6-5.3-3.3-11.7-8.3-7.2l-51.4,44.3c-1.4,1.1-3.3,0.3-3.3-1.7V163.4c0-1.9,2.5-2.8,3.6-1.4l155.5,186.2
	c5,6.1,12.5,9.5,20.3,9.5h5.6c14.7,0,26.7-12,26.7-26.7V134.2c0-14.7-11.9-26.7-26.7-26.7C319.7,107.5,311.1,112.3,306.1,120.3z"/>
</svg>
