<svg width="18" height="18" viewBox="0 0 18 18" fill="none" xmlns="http://www.w3.org/2000/svg">
<path d="M9 18C13.9707 18 18 13.9707 18 9C18 4.0293 13.9707 0 9 0C4.0293 0 0 4.0293 0 9C0 13.9707 4.0293 18 9 18Z" fill="#863FF8"/>
<path d="M6.90918 3.73283C6.61058 3.55573 6.24024 3.55573 5.94165 3.73283L3.55631 5.14754C3.26488 5.32038 3.08594 5.63583 3.08594 5.97673V8.8166C3.08594 9.1575 3.26488 9.47294 3.55631 9.64579L5.94165 11.0605C6.24024 11.2376 6.61058 11.2376 6.90918 11.0605L11.8322 8.14073L13.8995 9.36682V11.8399L11.8322 13.066L9.76488 11.8399V10.2827L8.4927 11.0844V12.0233C8.4927 12.3642 8.67164 12.6796 8.96307 12.8525L11.3484 14.2672C11.647 14.4443 12.0173 14.4443 12.3159 14.2672L14.7013 12.8525C14.9927 12.6796 15.1717 12.3642 15.1717 12.0233V9.18341C15.1717 8.84251 14.9927 8.52707 14.7013 8.35423L12.3159 6.93951C12.0173 6.76242 11.647 6.76242 11.3484 6.93951L6.42541 9.85928L4.35812 8.6332V6.16013L6.42541 4.93405L8.4927 6.16013V7.71733L9.76488 6.91567V5.97673C9.76488 5.63583 9.58595 5.32038 9.29452 5.14754L6.90918 3.73283Z" fill="white"/>
</svg>
