<?xml version="1.0" encoding="utf-8"?>
<!-- Generator: Adobe Illustrator 26.3.1, SVG Export Plug-In . SVG Version: 6.00 Build 0)  -->
<svg version="1.1" id="Layer_1" xmlns="http://www.w3.org/2000/svg" xmlns:xlink="http://www.w3.org/1999/xlink" x="0px" y="0px"
	 viewBox="0 0 1000 1000" style="enable-background:new 0 0 1000 1000;" xml:space="preserve">
<style type="text/css">
	.st0{fill-rule:evenodd;clip-rule:evenodd;fill:#C6C5C7;}
	.st1{fill:#5C5A62;}
	.st2{fill-rule:evenodd;clip-rule:evenodd;fill:#D1D2CE;}
</style>
<g id="layer1">
	<g id="g10236">
		<path id="path10216" class="st0" d="M121.7,495.2l-56.3,34.4l-20.3,15.6L21.6,668.8l286.3,72l7.8,1.6l32.8-23.5l107.9,31.3
			l178.3,56.3l26.6,3.1L993,595.3l1.6-14.1l-48.5-122l-7.8-10.9l-17.2-4.7l-126.7-18.8c-26.7-23.3-25.9,2.3-4.7-21.9l68.8-48.5
			L847.5,334l-42.2-106.4l-6.3-9.4l-15.6-3.1l-245.6,25L267.2,365.3l-23.5,14.1l-42.2,86L164,495.2H121.7z"/>
		<path id="path9586" class="st1" d="M508.8,783.2c-73.9-14.6-141.9-28-151.1-29.8c-12-2.3-16.8-6.3-16.8-13.7
			c0-8.4,39.1-124.2,44.1-130.7c2.1-2.7,184.7,26.6,196.2,31.5c7.4,3.1,19.1,27.6,40,83.4c30.5,81.3,32.3,87.5,25.7,86.4
			C644.8,810,582.7,797.8,508.8,783.2z M661.2,805.8c0-2.9,72.6-51.3,161.4-107.8s163.5-104.5,166-106.9c4.7-4.5,1.7-14-29.7-91.5
			c-10.1-24.9-16.4-45.3-14.1-45.3c2.3,0,11.8,19.1,21.1,42.5c9.2,23.4,21.5,53.2,27.3,66.2c6.1,13.7,8.5,25.6,5.9,28.4
			c-6,6.2-331.6,219.5-335.1,219.5C662.4,811,661.2,808.6,661.2,805.8z M167.9,717.4C94,702.8,26,689.4,16.8,687.6
			C4.8,685.2,0,681.3,0,673.8c0-8.4,39.1-124.2,44.1-130.7c2.1-2.7,184.7,26.6,196.2,31.5c7.4,3.1,19.1,27.6,40,83.4
			c30.5,81.3,32.3,87.5,25.7,86.4C303.9,744.2,241.7,732,167.9,717.4z M321.2,739.3c1.2-4,5.3-8.3,9-9.6c3.9-1.4,5.8,0.7,4.5,4.8
			c-1.2,4-5.3,8.3-9,9.6C321.9,745.5,319.9,743.4,321.2,739.3z M489.8,611.5c-44.5-6.4-82.5-13.4-84.4-15.4c-1.9-2,1.9-6.7,8.4-10.4
			c9.3-5.3,20.2-5.3,50.8-0.2c69.6,11.7,58.4,16,199.8-77.1l129.9-85.5l63.8,10.2c35.1,5.6,67.3,10.9,71.6,11.8
			c4.3,0.8-66,41.6-156.2,90.6c-131.4,71.3-167.8,88.9-183.4,88.4C579.5,623.5,534.3,617.9,489.8,611.5L489.8,611.5z M369.3,552.8
			c-73.9-14.6-141.9-28-151.1-29.8c-12-2.3-16.8-6.3-16.8-13.7c0-8.4,39.1-124.2,44.1-130.7c2.1-2.7,184.7,26.6,196.2,31.5
			c7.4,3.1,19.1,27.6,40,83.4c30.5,81.3,32.3,87.5,25.7,86.4C505.4,579.6,443.2,567.4,369.3,552.8z M147.4,545.6
			c-45.3-6.4-82.1-14-81.8-16.7c0.6-4.2,125.8-69,133.4-69c1.4,0-1,9.1-5.4,20.3c-9.2,23.5-5.9,49.2,6.9,53.2
			c7.7,2.4,67.4,14.3,71.6,14.3c0.9,0,1.6,2.5,1.6,5.5C273.8,560.9,241.7,559,147.4,545.6z M780,408c0-1.4,16.3-12.8,36.2-25.3
			c19.9-12.5,36.2-24.7,36.2-27c0-4.4-3.3-13.2-33-86.5c-10.1-24.9-16.4-45.3-14.1-45.3c3.2,0,38.5,81.9,55.8,129.7
			c1.2,3.4-14.9,17.6-35.9,31.5C788.8,409.2,780,413.6,780,408z M348.9,381c-45.3-6.4-82.1-14-81.7-16.7c0.4-2.7,70-39.2,154.8-81.1
			s163.1-80.9,174.3-86.7c20.2-10.6,20.4-10.6,105.9,3.1c47.1,7.6,87.9,14.4,90.6,15.2c2.7,0.8-68.8,41.4-158.8,90.3
			c-131.1,71.1-167.5,88.7-183.1,88.2C440.1,393,394.2,387.5,348.9,381z"/>
		<path id="path10218" class="st2" d="M902.3,499.8c-27.5,23.4-61.7,30.7-94.5,38.3c-28.9,30.5-72.7,36.7-100.8,66.7
			c-14.7,32.6-56.5,51.3-73.8,71.4c31.3,7,80.5,18.3,94.9-21.4c8.2-36.1,44.8-38.5,74.2-42.4c52.1-13.7,84.9-60.1,121.3-96.3
			C934.2,498.6,912.6,500.2,902.3,499.8z"/>
		<path id="path10225" class="st2" d="M780.3,273c-27.5,23.4-61.7,30.7-94.5,38.3C656.9,341.8,613.1,348,585,378
			c-14.7,32.6-56.5,51.3-73.8,71.4c31.3,7,80.5,18.3,94.9-21.4c8.2-36.1,44.8-38.5,74.2-42.4c52.1-13.7,84.9-60.1,121.3-96.3
			C812.2,271.8,790.6,273.4,780.3,273z"/>
		<path id="path10227" class="st2" d="M337.6,567.1c-7,8.3-21,6.4-26.5,15.2c-4.1,12.2-16.2,15.2-25.7,21.4
			c-6.4,4.7,5.3,12.8,8.2,13.5c15.5-1.8,25.4-16.7,41-19.7c11.5-5.3,26.3-8.6,30.8-22.2c2.2-6.6,12.7-14.3-1.2-11.7
			C355.2,563.8,346.6,567.4,337.6,567.1z"/>
	</g>
</g>
</svg>
