<?xml version="1.0" encoding="utf-8"?>
<!-- Generator: Adobe Illustrator 26.3.1, SVG Export Plug-In . SVG Version: 6.00 Build 0)  -->
<svg version="1.1" id="Layer_1" xmlns="http://www.w3.org/2000/svg" xmlns:xlink="http://www.w3.org/1999/xlink" x="0px" y="0px"
	 viewBox="0 0 74 74" style="enable-background:new 0 0 74 74;" xml:space="preserve">
<style type="text/css">
	.st0{fill:url(#Path_00000084512011828800657580000016637940457261006224_);}
	.st1{fill:#FFFFFF;}
</style>
<linearGradient id="Path_00000147933888815627991810000016569017472585781160_" gradientUnits="userSpaceOnUse" x1="3.1679" y1="1494.7284" x2="64.8106" y2="1433.2747" gradientTransform="matrix(1 0 0 1 0 -1424)">
	<stop  offset="0.18" style="stop-color:#920BBC"/>
	<stop  offset="0.84" style="stop-color:#0049DD"/>
</linearGradient>
<path id="Path" style="fill:url(#Path_00000147933888815627991810000016569017472585781160_);" d="M63.2,10.8C55.9,3.6,47.2,0,37,0
	S18.1,3.6,10.8,10.8C3.6,18.1,0,26.8,0,37s3.6,19,10.8,26.2C18.1,70.4,26.8,74,37,74s18.9-3.6,26.2-10.8C70.4,56,74,47.2,74,37
	S70.4,18.1,63.2,10.8L63.2,10.8z"/>
<g>
	<g>
		<path class="st1" d="M48.7,38.1c2.9-0.8,5.1-2.7,5.6-6.7c0.7-5.5-3.6-8.3-9.3-10.1l1.6-7.4l-4.5-1l-1.6,7.2
			c-1.2-0.3-2.4-0.5-3.6-0.8l1.6-7.3l-4.5-1l-1.6,7.4c-1-0.2-1.9-0.4-2.9-0.6l0,0l-6.2-1.4l-1.1,4.8c0,0,3.4,0.7,3.3,0.7
			c1.8,0.4,2.2,1.6,2.2,2.6l-1.9,8.4l-2.6,11.9c-0.2,0.6-0.8,1.4-2,1.1c0,0.1-3.3-0.7-3.3-0.7l-2.1,5.2l5.9,1.3
			c1.1,0.2,2.2,0.5,3.2,0.7l-1.7,7.5l4.5,1l1.6-7.4c1.2,0.3,2.4,0.6,3.6,0.8l-1.6,7.4l4.5,1l1.7-7.5c7.7,1.2,13.4,0.5,15.7-6.5
			C54.9,43.3,52.7,40.1,48.7,38.1z M35.8,24.7c2.5,0.6,10.7,1.5,9.6,6.8c-1.1,5.1-9,2.7-11.6,2.2L35.8,24.7z M30.6,48.2l2.2-9.9
			c3.1,0.7,12.9,1.9,11.6,7.8C43.1,51.6,33.6,48.9,30.6,48.2z"/>
	</g>
</g>
</svg>
