<?xml version="1.0" encoding="utf-8"?>
<!-- Generator: Adobe Illustrator 27.6.1, SVG Export Plug-In . SVG Version: 6.00 Build 0)  -->
<svg version="1.1" id="Layer_1" xmlns="http://www.w3.org/2000/svg" xmlns:xlink="http://www.w3.org/1999/xlink" x="0px" y="0px"
	 viewBox="0 0 74.5 74.4" style="enable-background:new 0 0 74.5 74.4;" xml:space="preserve">
<style type="text/css">
	.st0{fill:url(#SVGID_1_);}
	.st1{fill-rule:evenodd;clip-rule:evenodd;fill:#FFFFFF;}
</style>
<linearGradient id="SVGID_1_" gradientUnits="userSpaceOnUse" x1="3.2104" y1="2419.1853" x2="65.2404" y2="2357.3455" gradientTransform="matrix(1 0 0 1 0 -2348)">
	<stop  offset="0.18" style="stop-color:#920BBC"/>
	<stop  offset="0.84" style="stop-color:#0049DD"/>
</linearGradient>
<path class="st0" d="M63.6,10.9C56.3,3.6,47.5,0,37.2,0s-19,3.6-26.3,10.9S0,27,0,37.2s3.6,19.1,10.9,26.4
	c7.3,7.2,16.1,10.9,26.4,10.9s19-3.6,26.3-10.9s10.9-16.1,10.9-26.3S70.8,18.2,63.6,10.9L63.6,10.9z"/>
<path class="st1" d="M64.8,33.9c0.1,1.1,0.2,2.2,0.2,3.3C65,52.6,52.6,65,37.2,65C26.1,65,16.5,58.4,12,48.9l4.4-2.2
	c3.6,7.9,11.5,13.4,20.8,13.4C49.8,60.1,60,49.8,60,37.3c0-0.2,0-0.5,0-0.7L64.8,33.9z M37.2,9.5C49,9.5,59,16.7,63.1,27l-4.8,1.5
	c-3.4-8.2-11.6-14-21-14c-12.6,0-22.8,10.2-22.8,22.8c0,0.2,0,0.3,0,0.5l-4.6,3.8c-0.2-1.4-0.3-2.8-0.3-4.3
	C9.5,21.9,21.9,9.5,37.2,9.5z"/>
<polygon class="st1" points="6.3,48.3 33.5,26.1 32.4,35.4 48.2,26.4 47.4,35.2 68.2,28.5 40,44.1 42.1,35.2 25.8,44.8 26.9,38 "/>
</svg>
