<?xml version="1.0" encoding="utf-8"?>
<!-- Generator: Adobe Illustrator 26.3.1, SVG Export Plug-In . SVG Version: 6.00 Build 0)  -->
<svg version="1.1" id="Layer_1" xmlns="http://www.w3.org/2000/svg" xmlns:xlink="http://www.w3.org/1999/xlink" x="0px" y="0px"
	 viewBox="0 0 150 150" style="enable-background:new 0 0 150 150;" xml:space="preserve">
<style type="text/css">
	.st0{fill:#FF007A;}
	.st1{fill-rule:evenodd;clip-rule:evenodd;fill:#FF007A;}
</style>
<path class="st0" d="M61,34.2c-1.6-0.2-1.7-0.3-0.9-0.4c1.5-0.2,4.9,0.1,7.3,0.6c5.6,1.3,10.6,4.7,15.9,10.7l1.4,1.6l2-0.3
	c8.6-1.4,17.4-0.3,24.8,3.1c2,0.9,5.2,2.8,5.6,3.2c0.2,0.2,0.4,1.2,0.5,2.2c0.5,3.6,0.3,6.3-0.9,8.4c-0.6,1.2-0.6,1.5-0.2,2.5
	c0.3,0.8,1.2,1.3,2.1,1.3c1.9,0,3.8-2.9,4.7-7l0.4-1.6l0.7,0.8c3.9,4.4,7,10.5,7.5,14.9l0.2,1.2l-0.7-1c-1.2-1.8-2.2-2.9-3.7-3.9
	c-2.6-1.8-5.4-2.3-12.8-2.7c-6.7-0.4-10.4-0.9-14.2-2.2c-6.3-2.1-9.6-4.8-17.1-14.8c-3.3-4.4-5.4-6.8-7.5-8.8
	C71.5,37.4,66.9,35.1,61,34.2z"/>
<path class="st0" d="M118.6,44c0.2-2.9,0.5-4.9,1.4-6.7c0.3-0.7,0.6-1.3,0.7-1.3c0.1,0-0.1,0.5-0.3,1.2c-0.6,1.7-0.7,4.1-0.3,6.8
	c0.5,3.5,0.8,3.9,4.5,7.7c1.7,1.8,3.7,4,4.5,5l1.3,1.7l-1.3-1.2c-1.6-1.5-5.3-4.5-6.2-4.9c-0.5-0.3-0.6-0.3-1,0.1
	c-0.3,0.3-0.4,0.8-0.4,3c-0.1,3.5-0.5,5.6-1.7,7.9c-0.6,1.2-0.7,0.9-0.2-0.4c0.4-1,0.5-1.5,0.5-4.8c0-6.7-0.8-8.4-5.5-11.1
	c-1.2-0.7-3.2-1.7-4.3-2.2c-1.2-0.5-2.2-1-2.1-1c0.2-0.2,4.7,1.2,6.5,1.9c2.7,1.1,3.2,1.2,3.5,1.1C118.4,46.5,118.5,45.9,118.6,44z"
	/>
<path class="st0" d="M64.1,55.5c-3.2-4.5-5.3-11.4-4.9-16.6l0.2-1.6l0.8,0.2c1.4,0.2,3.8,1.2,5,1.9c3.1,1.9,4.5,4.4,5.8,10.8
	c0.4,1.9,0.9,4,1.2,4.7c0.4,1.2,1.9,3.9,3.1,5.6c0.9,1.2,0.3,1.9-1.6,1.7C70.6,61.7,66.7,59,64.1,55.5z"/>
<path class="st0" d="M114.7,89.2C99.3,83,93.9,77.6,93.9,68.6c0-1.3,0.1-2.4,0.1-2.4c0.1,0,0.6,0.5,1.3,1c3.1,2.5,6.6,3.6,16.2,5
	c5.6,0.9,8.9,1.5,11.8,2.5c9.4,3.1,15.2,9.4,16.6,18c0.4,2.5,0.2,7.2-0.5,9.7c-0.5,1.9-2.1,5.5-2.5,5.6c-0.1,0-0.2-0.4-0.2-1
	c-0.2-3.2-1.8-6.3-4.5-8.7C129,95.4,124.9,93.3,114.7,89.2z"/>
<path class="st0" d="M103.8,91.7c-0.2-1.2-0.5-2.6-0.8-3.2l-0.4-1.2l0.7,0.9c1,1.2,1.8,2.6,2.5,4.5c0.5,1.5,0.5,1.9,0.5,4.3
	c0,2.3-0.1,2.9-0.5,4.2c-0.8,2.1-1.7,3.6-3.2,5.2c-2.8,2.9-6.4,4.4-11.6,5.1c-0.9,0.1-3.6,0.3-5.9,0.5c-5.8,0.3-9.7,0.9-13.2,2.2
	c-0.5,0.2-0.9,0.3-1,0.2c-0.2-0.2,2.2-1.5,4.2-2.5c2.7-1.3,5.5-2,11.6-3.1c3-0.5,6.1-1.1,6.9-1.4C101.3,104.9,105.1,99,103.8,91.7z"
	/>
<path class="st0" d="M110.9,104.2c-2-4.4-2.5-8.6-1.4-12.5c0.2-0.4,0.3-0.8,0.5-0.8c0.2,0,0.6,0.2,1.1,0.5c0.9,0.6,2.9,1.7,7.8,4.4
	c6.3,3.4,9.8,6,12.3,9.1c2.2,2.6,3.5,5.6,4.1,9.4c0.4,2.1,0.2,7.1-0.4,9.2c-1.7,6.6-5.6,11.8-11.2,14.9c-0.9,0.5-1.5,0.8-1.6,0.8
	s0.2-0.8,0.7-1.7c1.9-3.9,2.1-7.7,0.7-12c-0.9-2.6-2.6-5.8-6.2-11.1C112.9,108,111.9,106.4,110.9,104.2z"/>
<path class="st0" d="M53.2,127.8c5.7-4.8,12.8-8.2,19.3-9.3c2.8-0.5,7.4-0.3,10,0.4c4.1,1.1,7.8,3.4,9.7,6.3
	c1.9,2.8,2.7,5.2,3.6,10.5c0.3,2.1,0.7,4.3,0.8,4.7c0.6,2.8,1.9,5,3.4,6.1c2.4,1.8,6.6,1.9,10.7,0.3c0.7-0.2,1.3-0.5,1.3-0.4
	c0.2,0.2-1.9,1.5-3.3,2.2c-1.9,1-3.5,1.3-5.6,1.3c-3.7,0-6.9-1.9-9.4-5.8c-0.5-0.8-1.6-3-2.6-5.1c-2.7-6.3-4.1-8.1-7.3-10.2
	c-2.8-1.8-6.3-2.2-9.1-0.9c-3.6,1.7-4.5,6.3-2,9.1c1,1.2,2.9,2.1,4.4,2.3c2.9,0.4,5.3-1.9,5.3-4.7c0-1.9-0.7-2.9-2.6-3.8
	c-2.5-1.1-5.2,0.2-5.1,2.6c0,1,0.5,1.6,1.5,2.1c0.6,0.3,0.6,0.3,0.2,0.2c-2.2-0.5-2.8-3.2-1-5c2.2-2.2,6.7-1.2,8.3,1.8
	c0.6,1.2,0.7,3.7,0.2,5.3c-1.3,3.4-5,5.2-8.8,4.2c-2.6-0.7-3.6-1.4-6.7-4.6c-5.4-5.6-7.5-6.7-15.2-7.8l-1.5-0.2L53.2,127.8z"/>
<path class="st1" d="M12.5,3.4c18,21.9,45.8,55.9,47.2,57.8c1.2,1.5,0.7,3-1.2,4.1c-1.1,0.6-3.3,1.2-4.4,1.2c-1.2,0-2.7-0.6-3.7-1.6
	c-0.7-0.7-3.7-5.1-10.5-15.7c-5.2-8.1-9.6-14.9-9.7-14.9c-0.3-0.2-0.3-0.2,9.1,16.7c6,10.6,7.9,14.4,7.9,14.9c0,1-0.3,1.5-1.5,2.9
	c-2.1,2.3-3,5-3.7,10.4c-0.8,6.1-2.9,10.4-8.8,17.8c-3.5,4.3-4,5.1-4.9,6.9c-1.1,2.2-1.4,3.4-1.5,6.2c-0.2,2.9,0.2,4.8,1,7.6
	c0.8,2.5,1.6,4.1,3.7,7.3c1.8,2.8,2.9,4.9,2.9,5.6c0,0.6,0.2,0.6,2.9,0c6.7-1.5,12.1-4.2,15.2-7.4c1.9-2,2.3-3.1,2.3-5.9
	c0-1.8-0.1-2.2-0.5-3.2c-0.8-1.7-2.2-3.1-5.4-5.3c-4.2-2.9-6-5.2-6.4-8.3c-0.4-2.6,0.1-4.4,2.4-9.3c2.4-5,3-7.1,3.4-12.2
	c0.2-3.2,0.6-4.6,1.5-5.6c1-1.1,1.9-1.5,4.3-1.8c3.9-0.5,6.5-1.5,8.5-3.5c1.8-1.6,2.6-3.2,2.6-5.6l0.1-1.8l-1-1.1
	C60.5,55.4,10.1,0,9.9,0C9.8,0,11.1,1.5,12.5,3.4z M36.3,113.4c0.9-1.5,0.4-3.3-1-4.3c-1.3-0.9-3.3-0.5-3.3,0.7
	c0,0.3,0.2,0.6,0.6,0.8c0.7,0.4,0.8,0.8,0.2,1.6s-0.5,1.6,0.2,2.2C34,115.2,35.5,114.8,36.3,113.4z"/>
<path class="st1" d="M67.6,72.7c-1.9,0.5-3.6,2.6-4.2,4.6c-0.3,1.2-0.2,3.5,0.4,4.2c0.9,1.1,1.6,1.4,3.8,1.4c4.3,0,7.9-1.9,8.3-4.1
	c0.4-1.9-1.2-4.4-3.5-5.6C71.3,72.5,68.9,72.3,67.6,72.7z M72.6,76.6c0.6-0.9,0.4-1.9-0.8-2.6c-2.1-1.3-5.3-0.2-5.3,1.8
	c0,1,1.6,2.1,3.2,2.1C70.7,77.8,72.1,77.2,72.6,76.6z"/>
</svg>
